<svg width="11" height="13" viewBox="0 0 11 13" fill="none" xmlns="http://www.w3.org/2000/svg">
<path fill-rule="evenodd" clip-rule="evenodd" d="M5.83119 1.04237L3.00912 4.6599C2.70051 4.67799 2.45583 4.93398 2.45583 5.24712V12.4117C2.45583 12.7366 2.7192 12.9999 3.04407 12.9999H8.76572C9.05014 12.9999 9.29382 12.7964 9.34453 12.5166L10.6427 5.352C10.7081 4.99101 10.4308 4.65888 10.0639 4.65888H6.15912L6.95334 1.85098C6.99292 1.71103 6.94728 1.55691 6.83794 1.46127L6.31327 1.00233C6.16516 0.872781 5.94951 0.89069 5.83119 1.04237ZM0.235296 5.06578C0.105346 5.06578 0 5.17113 0 5.30108V12.7647C0 12.8946 0.105346 13 0.235296 13H1.6539C1.78385 13 1.8892 12.8946 1.8892 12.7647V5.30108C1.8892 5.17113 1.78385 5.06578 1.6539 5.06578H0.235296Z" fill="#B5B5B5"/>
</svg>
