<svg width="12" height="14" viewBox="0 0 12 14" fill="none" xmlns="http://www.w3.org/2000/svg">
<path fill-rule="evenodd" clip-rule="evenodd" d="M6.51862 0.205376L3.37097 4.2401C3.02334 4.32899 2.76634 4.64429 2.76634 5.01962V12.8056C2.76634 13.2499 3.12655 13.6101 3.57089 13.6101H9.75532C10.1443 13.6101 10.4776 13.3318 10.547 12.949L11.9578 5.16307C12.0473 4.66934 11.6679 4.21507 11.1662 4.21507H6.939L7.81849 1.1058C7.87263 0.914396 7.81021 0.703607 7.66065 0.572792L7.17798 0.15061C6.97541 -0.0265731 6.68046 -0.00207467 6.51862 0.205376ZM0.32182 4.67257C0.144084 4.67257 0 4.81665 0 4.99439V13.2875C0 13.4653 0.144084 13.6094 0.32182 13.6094H1.80619C1.98393 13.6094 2.12801 13.4653 2.12801 13.2875V4.99439C2.12801 4.81665 1.98393 4.67257 1.80619 4.67257H0.32182Z" fill="#68B901"/>
</svg>
