<svg width="97" height="121" viewBox="0 0 97 121" fill="none" xmlns="http://www.w3.org/2000/svg">
<g clip-path="url(#clip0_38_5572)">
<path d="M66.1965 71.59L92.2286 84.0637L93.4748 81.7076L67.8582 69.3031C69.5198 66.8084 70.6275 64.1981 71.1814 61.4724L68.3428 60.9873C67.512 64.7294 65.6057 68.1158 62.6287 71.1372C59.6516 74.1633 56.1299 76.5564 52.0682 78.312C48.0064 80.0675 44.037 81.0146 40.1599 81.1532V83.9251C44.8217 83.7866 49.5619 82.6085 54.3898 80.3909C59.2131 78.1734 63.1502 75.2397 66.1919 71.59H66.1965Z" fill="#437E00"/>
<path d="M84.8203 103.223C80.0663 101.675 74.066 100.903 66.8195 100.903C59.573 100.903 53.5727 101.679 48.8186 103.223C44.0645 104.77 41.6875 107.325 41.6875 110.882C41.6875 114.44 44.0738 117.073 48.8509 118.644C53.6281 120.215 59.6145 121 66.8149 121C74.0152 121 80.0063 120.215 84.7834 118.644C89.5606 117.073 91.9468 114.486 91.9468 110.882C91.9468 107.279 89.5698 104.775 84.8157 103.223H84.8203ZM82.4664 116.528C78.1277 117.706 72.9121 118.297 66.8195 118.297C60.7269 118.297 55.5112 117.711 51.1726 116.528C46.8339 115.35 44.6646 113.469 44.6646 110.882C44.6646 108.295 46.8201 106.438 51.1356 105.301C55.4512 104.17 60.6761 103.606 66.8195 103.606C72.9629 103.606 78.1831 104.174 82.5033 105.301C86.8189 106.433 88.9744 108.295 88.9744 110.882C88.9744 113.469 86.805 115.35 82.4664 116.528Z" fill="#437E00"/>
<path opacity="0.78" d="M63.9579 64.554C65.3795 62.4057 66.3257 60.1604 66.7965 57.8182L64.3548 57.407C63.6486 60.6224 62.0193 63.5376 59.4715 66.1432C56.9191 68.7489 53.9005 70.814 50.4157 72.3293C46.9309 73.8492 43.52 74.6716 40.1875 74.7963V77.1802C44.1985 77.0508 48.274 76.0252 52.4142 74.1126C56.5544 72.1953 59.9285 69.6682 62.5363 66.5221" fill="#6FB9E4"/>
<path opacity="0.38" d="M60.0254 60.8627C61.2116 59.0702 62.0009 57.1945 62.3932 55.2403L60.3577 54.8984C59.7669 57.5826 58.4099 60.0173 56.2821 62.1887C54.1543 64.3646 51.6342 66.0878 48.7218 67.3537C45.8093 68.6196 42.9661 69.3079 40.1875 69.4142V71.4007C43.5338 71.2945 46.9355 70.4398 50.3926 68.8367C53.8451 67.2382 56.6652 65.1269 58.8438 62.5028" fill="#5FB400"/>
<path d="M68.2735 80.5989H65.3657V91.2016H37.6028V93.9042H96.0364V91.2016H68.2735V80.5989Z" fill="#437E00"/>
<path d="M24.0376 14.7698H38.6552V12.0671H25.2469C24.8315 13.0419 24.4392 13.9521 24.0422 14.7698H24.0376Z" fill="#437E00"/>
<path d="M35.8303 25.1001H50.0233V40.9695H52.9311V5.55786H50.0233V22.4667H35.8303V25.1001Z" fill="#437E00"/>
<path d="M47.0462 46.1299C42.5691 44.4898 36.6149 43.6675 29.1838 43.6675C21.7527 43.6675 15.7986 44.4898 11.3214 46.1299C6.84428 47.77 4.60571 50.371 4.60571 53.9283C4.60571 57.4856 6.84428 60.082 11.3214 61.7267C15.7986 63.3668 21.7527 64.1845 29.1838 64.1845C36.6149 64.1845 42.5691 63.3621 47.0462 61.7267C51.5233 60.0866 53.7619 57.4902 53.7619 53.9283C53.7619 50.3663 51.5233 47.7746 47.0462 46.1299ZM44.7938 59.6431C40.8013 60.9136 35.5949 61.5465 29.1838 61.5465C22.7727 61.5465 17.5617 60.909 13.5692 59.6431C9.57672 58.3727 7.57816 56.4692 7.57816 53.9237C7.57816 51.3781 9.57211 49.4793 13.5692 48.2042C17.5617 46.9338 22.7635 46.3008 29.1838 46.3008C35.6041 46.3008 40.8013 46.9384 44.7938 48.2042C48.7863 49.4747 50.7849 51.3827 50.7849 53.9237C50.7849 56.4646 48.7863 58.368 44.7938 59.6431Z" fill="#437E00"/>
<path d="M17.9403 17.5232C17.1418 21.9583 15.411 25.7559 12.7385 28.9113C9.53068 32.6996 5.29817 35.1019 0.036377 36.1183V38.8903C4.28273 38.1049 7.9983 36.511 11.1831 34.1087C14.3678 31.7063 16.8372 28.6803 18.5911 25.0305L37.5613 38.3359L39.1536 36.049L19.6989 22.4665C20.2297 20.9281 20.6635 19.191 20.9497 17.5232" fill="#437E00"/>
<path d="M10.703 12.0671H4.46266H0.165527V14.7698H4.46266H9.5029H13.7954L15.0001 12.0671H10.703Z" fill="#437E00"/>
<path d="M23.9321 2.06471C24.2588 1.32216 23.9223 0.455085 23.1804 0.128046C22.4386 -0.198994 21.5723 0.137844 21.2456 0.880394L15.2569 14.4903C14.9302 15.2329 15.2667 16.1 16.0086 16.427C16.7504 16.754 17.6167 16.4172 17.9434 15.6747L23.9321 2.06471Z" fill="#6FB9E4"/>
<path d="M30.564 5.40532C30.3286 4.62918 29.507 4.19029 28.7316 4.43052L27.2038 4.89713L28.3716 2.24531C28.6993 1.5015 28.3623 0.637577 27.6192 0.309564C26.8761 -0.0184496 26.013 0.318804 25.6853 1.06261L19.6942 14.6729C19.3665 15.4167 19.7034 16.2806 20.4466 16.6086C21.1897 16.9366 22.0528 16.5994 22.3805 15.8556L25.6437 8.43598C25.6437 8.43598 25.6668 8.43598 25.676 8.43136L29.5855 7.23943C30.3609 7.00381 30.7994 6.18147 30.5593 5.40532H30.564Z" fill="#6FB9E4"/>
</g>
<defs>
<clipPath id="clip0_38_5572">
<rect width="96" height="121" fill="white" transform="translate(0.036377)"/>
</clipPath>
</defs>
</svg>
