<svg width="22" height="22" viewBox="0 0 22 22" fill="none" xmlns="http://www.w3.org/2000/svg">
<path fill-rule="evenodd" clip-rule="evenodd" d="M5.82894 18.358C6.12978 18.6582 5.91506 19.1721 5.49009 19.169L3.17408 19.1523C3.04449 19.1514 2.93959 19.0467 2.93837 18.9171L2.91652 16.6011C2.91251 16.1762 3.42596 15.9603 3.72679 16.2605L5.82894 18.358Z" fill="white"/>
<path fill-rule="evenodd" clip-rule="evenodd" d="M21.4229 3.86844C21.6085 4.05369 21.6089 4.35436 21.4236 4.54002L20.3499 5.61612L16.2611 1.53635L17.3348 0.46025C17.5201 0.274594 17.8207 0.274261 18.0064 0.459507L21.4229 3.86844ZM15.7485 2.05011L19.8373 6.12988L7.61268 18.3815C7.42744 18.5672 7.12676 18.5675 6.94111 18.3823L3.52462 14.9734C3.33896 14.7881 3.33863 14.4874 3.52388 14.3018L15.7485 2.05011Z" fill="white"/>
</svg>
