<svg width="39" height="39" viewBox="0 0 39 39" fill="none" xmlns="http://www.w3.org/2000/svg">
<path d="M19.1391 25.9999C22.5295 25.9999 25.278 23.2515 25.278 19.8611C25.278 16.4706 22.5295 13.7222 19.1391 13.7222C15.7487 13.7222 13.0002 16.4706 13.0002 19.8611C13.0002 23.2515 15.7487 25.9999 19.1391 25.9999Z" fill="#68B901"/>
<path d="M14.2859 3.4939L11.3121 6.7439H6.16089C4.37339 6.7439 2.91089 8.2064 2.91089 9.9939V29.4939C2.91089 31.2814 4.37339 32.7439 6.16089 32.7439H32.1609C33.9484 32.7439 35.4109 31.2814 35.4109 29.4939V9.9939C35.4109 8.2064 33.9484 6.7439 32.1609 6.7439H27.0096L24.0359 3.4939H14.2859ZM19.1609 27.8689C14.6759 27.8689 11.0359 24.2289 11.0359 19.7439C11.0359 15.2589 14.6759 11.6189 19.1609 11.6189C23.6459 11.6189 27.2859 15.2589 27.2859 19.7439C27.2859 24.2289 23.6459 27.8689 19.1609 27.8689Z" fill="#68B901"/>
</svg>
