<svg width="198" height="94" viewBox="0 0 198 94" fill="none" xmlns="http://www.w3.org/2000/svg">
<mask id="path-1-inside-1_60_452" fill="white">
<path fill-rule="evenodd" clip-rule="evenodd" d="M4 0C1.79086 0 0 1.79086 0 4V24.9855V27.3333V84C0 89.5228 4.47715 94 10 94H188C193.523 94 198 89.5228 198 84V24.9855C198 19.4627 193.523 14.9855 188 14.9855H63.7481L59.6249 2.72497C59.0773 1.09678 57.5513 0 55.8335 0H4Z"/>
</mask>
<path fill-rule="evenodd" clip-rule="evenodd" d="M4 0C1.79086 0 0 1.79086 0 4V24.9855V27.3333V84C0 89.5228 4.47715 94 10 94H188C193.523 94 198 89.5228 198 84V24.9855C198 19.4627 193.523 14.9855 188 14.9855H63.7481L59.6249 2.72497C59.0773 1.09678 57.5513 0 55.8335 0H4Z" fill="#68B901" fill-opacity="0.1"/>
<path d="M63.7481 14.9855L63.2742 15.1449L63.3888 15.4855H63.7481V14.9855ZM59.6249 2.72497L60.0988 2.56559V2.56559L59.6249 2.72497ZM0.5 4C0.5 2.06701 2.067 0.5 4 0.5V-0.5C1.51472 -0.5 -0.5 1.51472 -0.5 4H0.5ZM0.5 24.9855V4H-0.5V24.9855H0.5ZM0.5 27.3333V24.9855H-0.5V27.3333H0.5ZM0.5 84V27.3333H-0.5V84H0.5ZM10 93.5C4.75329 93.5 0.5 89.2467 0.5 84H-0.5C-0.5 89.799 4.20101 94.5 10 94.5V93.5ZM188 93.5H10V94.5H188V93.5ZM197.5 84C197.5 89.2467 193.247 93.5 188 93.5V94.5C193.799 94.5 198.5 89.799 198.5 84H197.5ZM197.5 24.9855V84H198.5V24.9855H197.5ZM188 15.4855C193.247 15.4855 197.5 19.7388 197.5 24.9855H198.5C198.5 19.1865 193.799 14.4855 188 14.4855V15.4855ZM63.7481 15.4855H188V14.4855H63.7481V15.4855ZM59.151 2.88435L63.2742 15.1449L64.222 14.8261L60.0988 2.56559L59.151 2.88435ZM55.8335 0.5C57.3366 0.5 58.6719 1.45968 59.151 2.88435L60.0988 2.56559C59.4828 0.733879 57.7661 -0.5 55.8335 -0.5V0.5ZM4 0.5H55.8335V-0.5H4V0.5Z" fill="#68B901" mask="url(#path-1-inside-1_60_452)"/>
</svg>
