<svg width="100%" height="100%" viewBox="0 0 96 121" fill="none" xmlns="http://www.w3.org/2000/svg">
<g clip-path="url(#clip0_217_2251)">
<path d="M66.1597 71.59L92.1917 84.0637L93.4379 81.7076L67.8213 69.3031C69.4829 66.8084 70.5907 64.1981 71.1445 61.4724L68.3059 60.9873C67.4751 64.7294 65.5689 68.1158 62.5918 71.1372C59.6148 74.1633 56.093 76.5564 52.0313 78.312C47.9696 80.0675 44.0002 81.0146 40.123 81.1532V83.9252C44.7848 83.7866 49.525 82.6085 54.353 80.3909C59.1763 78.1734 63.1134 75.2397 66.1551 71.59H66.1597Z" fill="#437E00"/>
<path d="M84.7832 103.223C80.0292 101.675 74.0289 100.903 66.7824 100.903C59.5359 100.903 53.5356 101.679 48.7815 103.223C44.0274 104.77 41.6504 107.325 41.6504 110.882C41.6504 114.44 44.0367 117.073 48.8138 118.644C53.591 120.215 59.5774 121 66.7777 121C73.9781 121 79.9692 120.215 84.7463 118.644C89.5235 117.073 91.9097 114.486 91.9097 110.882C91.9097 107.279 89.5327 104.775 84.7786 103.223H84.7832ZM82.4293 116.528C78.0906 117.706 72.875 118.297 66.7824 118.297C60.6898 118.297 55.4741 117.711 51.1355 116.528C46.7968 115.35 44.6275 113.469 44.6275 110.882C44.6275 108.295 46.7829 106.438 51.0985 105.301C55.4141 104.17 60.639 103.606 66.7824 103.606C72.9257 103.606 78.146 104.174 82.4662 105.301C86.7818 106.433 88.9373 108.295 88.9373 110.882C88.9373 113.469 86.7679 115.35 82.4293 116.528Z" fill="#437E00"/>
<path opacity="0.78" d="M63.9208 64.5542C65.3424 62.406 66.2886 60.1607 66.7594 57.8184L64.3177 57.4072C63.6115 60.6227 61.9822 63.5378 59.4344 66.1435C56.882 68.7491 53.8634 70.8142 50.3786 72.3295C46.8938 73.8495 43.4829 74.6718 40.1504 74.7966V77.1804C44.1614 77.0511 48.2369 76.0255 52.3771 74.1128C56.5173 72.1955 59.8913 69.6685 62.4992 66.5223" fill="#6FB9E4"/>
<path opacity="0.38" d="M59.9883 60.8627C61.1745 59.0702 61.9638 57.1945 62.3561 55.2403L60.3206 54.8984C59.7298 57.5826 58.3728 60.0173 56.245 62.1887C54.1172 64.3646 51.5971 66.0878 48.6846 67.3537C45.7722 68.6196 42.929 69.3079 40.1504 69.4142V71.4007C43.4967 71.2945 46.8984 70.4398 50.3555 68.8367C53.808 67.2382 56.6281 65.1269 58.8067 62.5028" fill="#5FB400"/>
<path d="M68.2371 80.5986H65.3293V91.2013H37.5664V93.904H96V91.2013H68.2371V80.5986Z" fill="#437E00"/>
<path d="M24.002 14.77H38.6196V12.0674H25.2112C24.7958 13.0422 24.4035 13.9523 24.0066 14.77H24.002Z" fill="#437E00"/>
<path d="M35.7949 25.0998H49.9879V40.9692H52.8957V5.55762H49.9879V22.4665H35.7949V25.0998Z" fill="#437E00"/>
<path d="M47.0108 46.1294C42.5337 44.4893 36.5795 43.667 29.1484 43.667C21.7173 43.667 15.7632 44.4893 11.286 46.1294C6.80888 47.7695 4.57031 50.3705 4.57031 53.9278C4.57031 57.4851 6.80888 60.0815 11.286 61.7262C15.7632 63.3663 21.7173 64.184 29.1484 64.184C36.5795 64.184 42.5337 63.3617 47.0108 61.7262C51.4879 60.0861 53.7265 57.4898 53.7265 53.9278C53.7265 50.3659 51.4879 47.7741 47.0108 46.1294ZM44.7584 59.6426C40.7659 60.9131 35.5595 61.546 29.1484 61.546C22.7373 61.546 17.5263 60.9085 13.5338 59.6426C9.54132 58.3722 7.54276 56.4688 7.54276 53.9232C7.54276 51.3776 9.53671 49.4788 13.5338 48.2037C17.5263 46.9333 22.7281 46.3003 29.1484 46.3003C35.5687 46.3003 40.7659 46.9379 44.7584 48.2037C48.7509 49.4742 50.7495 51.3822 50.7495 53.9232C50.7495 56.4641 48.7509 58.3675 44.7584 59.6426Z" fill="#437E00"/>
<path d="M17.9039 17.5234C17.1054 21.9585 15.3746 25.7561 12.7021 28.9115C9.4943 32.6998 5.26179 35.1022 0 36.1186V38.8905C4.24636 38.1051 7.96192 36.5113 11.1467 34.1089C14.3315 31.7066 16.8008 28.6805 18.5547 25.0308L37.5249 38.3361L39.1173 36.0493L19.6625 22.4667C20.1933 20.9283 20.6271 19.1912 20.9133 17.5234" fill="#437E00"/>
<path d="M10.6663 12.0674H4.42604H0.128906V14.77H4.42604H9.46628H13.7588L14.9635 12.0674H10.6663Z" fill="#437E00"/>
<path d="M23.8957 2.06495C24.2224 1.3224 23.8859 0.455329 23.144 0.12829C22.4022 -0.198749 21.5359 0.138088 21.2092 0.880638L15.2206 14.4906C14.8938 15.2331 15.2304 16.1002 15.9722 16.4272C16.7141 16.7543 17.5803 16.4174 17.9071 15.6749L23.8957 2.06495Z" fill="#6FB9E4"/>
<path d="M30.5283 5.40483C30.2929 4.62869 29.4713 4.1898 28.6959 4.43003L27.1682 4.89664L28.3359 2.24482C28.6636 1.50101 28.3267 0.637089 27.5836 0.309076C26.8405 -0.0189379 25.9773 0.318315 25.6496 1.06212L19.6586 14.6724C19.3309 15.4162 19.6678 16.2801 20.4109 16.6081C21.154 16.9361 22.0171 16.5989 22.3449 15.8551L25.6081 8.43549C25.6081 8.43549 25.6312 8.43549 25.6404 8.43087L29.5498 7.23894C30.3252 7.00332 30.7637 6.18098 30.5237 5.40483H30.5283Z" fill="#6FB9E4"/>
</g>
<defs>
<clipPath id="clip0_217_2251">
<rect width="96" height="121" fill="white"/>
</clipPath>
</defs>
</svg>
