<svg width="8" height="7" viewBox="0 0 8 7" fill="none" xmlns="http://www.w3.org/2000/svg">
<path fill-rule="evenodd" clip-rule="evenodd" d="M1.93313 2.23249C1.87705 2.29489 1.84068 2.36594 1.82294 2.43914C1.71488 2.57611 1.65039 2.74905 1.65039 2.93706V6.19505C1.65039 6.63939 2.0106 6.9996 2.45494 6.9996H5.56778C5.94877 6.9996 6.27752 6.73238 6.35536 6.35944L7.03537 3.10144C7.13966 2.60175 6.75825 2.13251 6.24779 2.13251H4.14029L4.61923 0.662526C4.67924 0.478335 4.61738 0.281215 4.4627 0.163759L4.43384 0.141842C4.2279 -0.0145382 3.92377 0.0172423 3.74734 0.213577L1.93313 2.23249ZM0.32182 2.36987C0.144084 2.36987 0 2.51396 0 2.69169V6.67773C0 6.85547 0.144084 6.99955 0.32182 6.99955H0.948001C1.12574 6.99955 1.26982 6.85547 1.26982 6.67773V2.69169C1.26982 2.51396 1.12574 2.36987 0.948001 2.36987H0.32182Z" fill="#68B901"/>
</svg>
