<svg width="38" height="38" viewBox="0 0 38 38" fill="none" xmlns="http://www.w3.org/2000/svg">
<rect x="0.5" y="0.5" width="37" height="37" rx="7.5" fill="white" stroke="#68B901"/>
<path opacity="0.6" fill-rule="evenodd" clip-rule="evenodd" d="M10.75 10.1832C10.75 9.52975 11.2797 9 11.9332 9H19.4782C20.1316 9 20.6614 9.52974 20.6614 10.1832V13.3555C20.6614 14.009 20.1316 14.5387 19.4782 14.5387H12.2856L10.7507 16.3604L10.7507 13.6639H10.7906C10.7641 13.5656 10.75 13.4622 10.75 13.3555V10.1832ZM22.631 14.3082C22.631 14.8132 22.3146 15.2443 21.8693 15.4142H25.3447L26.8797 17.2358L26.8797 14.5394H26.8398C26.8663 14.441 26.8804 14.3377 26.8804 14.231V11.0587C26.8804 10.4052 26.3507 9.87548 25.6972 9.87548H22.631V14.3082ZM21.5351 19.7851C21.5351 21.2341 20.3605 22.4087 18.9115 22.4087C17.4625 22.4087 16.2879 21.2341 16.2879 19.7851C16.2879 18.3361 17.4625 17.1615 18.9115 17.1615C20.3605 17.1615 21.5351 18.3361 21.5351 19.7851ZM13.5174 22.7001C14.5639 22.7001 15.4123 21.8518 15.4123 20.8053C15.4123 19.7588 14.5639 18.9105 13.5174 18.9105C12.471 18.9105 11.6226 19.7588 11.6226 20.8053C11.6226 21.8518 12.471 22.7001 13.5174 22.7001ZM26.2 20.8053C26.2 21.8518 25.3516 22.7001 24.3052 22.7001C23.2587 22.7001 22.4103 21.8518 22.4103 20.8053C22.4103 19.7588 23.2587 18.9105 24.3052 18.9105C25.3516 18.9105 26.2 19.7588 26.2 20.8053ZM24.1564 28.8221V25.9146V25.7758H24.1491C24.0011 24.3873 21.6465 23.2837 18.7635 23.2837C15.8804 23.2837 13.5258 24.3873 13.3779 25.7758H13.3705V25.9146V28.6961H11.5511V25.6765V25.5324H11.5585C11.6101 25.0252 11.933 24.5545 12.4545 24.1575C10.5255 24.4427 9.11643 25.2148 9.00687 26.1358H9V26.2516V28.697H13.3705V28.8221H24.1564ZM25.9349 25.7204V28.8287L28.4844 28.8287V26.3134V26.193H28.4774C28.3668 25.2464 26.9599 24.4529 25.0337 24.159C25.5542 24.5674 25.8763 25.0513 25.9277 25.5728H25.9349V25.7204Z" fill="#68B901"/>
</svg>
