<svg width="264" height="61" viewBox="0 0 264 61" fill="none" xmlns="http://www.w3.org/2000/svg">
<mask id="path-1-inside-1_60_437" fill="white">
<path fill-rule="evenodd" clip-rule="evenodd" d="M4 0C1.79086 0 0 1.79086 0 4V25V27.3333V51C0 56.5228 4.47716 61 10 61H254C259.523 61 264 56.5228 264 51V25C264 19.4772 259.523 15 254 15H63.753L59.6249 2.72497C59.0773 1.09678 57.5513 0 55.8335 0H4Z"/>
</mask>
<path fill-rule="evenodd" clip-rule="evenodd" d="M4 0C1.79086 0 0 1.79086 0 4V25V27.3333V51C0 56.5228 4.47716 61 10 61H254C259.523 61 264 56.5228 264 51V25C264 19.4772 259.523 15 254 15H63.753L59.6249 2.72497C59.0773 1.09678 57.5513 0 55.8335 0H4Z" fill="#777777" fill-opacity="0.1"/>
<path d="M63.753 15L63.2791 15.1594L63.3936 15.5H63.753V15ZM59.6249 2.72497L60.0988 2.56559V2.56559L59.6249 2.72497ZM0.5 4C0.5 2.06701 2.067 0.5 4 0.5V-0.5C1.51472 -0.5 -0.5 1.51472 -0.5 4H0.5ZM0.5 25V4H-0.5V25H0.5ZM0.5 27.3333V25H-0.5V27.3333H0.5ZM0.5 51V27.3333H-0.5V51H0.5ZM10 60.5C4.7533 60.5 0.5 56.2467 0.5 51H-0.5C-0.5 56.799 4.20102 61.5 10 61.5V60.5ZM254 60.5H10V61.5H254V60.5ZM263.5 51C263.5 56.2467 259.247 60.5 254 60.5V61.5C259.799 61.5 264.5 56.799 264.5 51H263.5ZM263.5 25V51H264.5V25H263.5ZM254 15.5C259.247 15.5 263.5 19.7533 263.5 25H264.5C264.5 19.201 259.799 14.5 254 14.5V15.5ZM63.753 15.5H254V14.5H63.753V15.5ZM59.151 2.88435L63.2791 15.1594L64.2269 14.8406L60.0988 2.56559L59.151 2.88435ZM55.8335 0.5C57.3366 0.5 58.6719 1.45968 59.151 2.88435L60.0988 2.56559C59.4828 0.733879 57.7661 -0.5 55.8335 -0.5V0.5ZM4 0.5H55.8335V-0.5H4V0.5Z" fill="#777777" mask="url(#path-1-inside-1_60_437)"/>
</svg>
