<!-- 
  <svg xmlns="http://www.w3.org/2000/svg" viewBox="0 0 183 94" width="100%">
    <mask id="mask" fill="white">
      <path d="M4 0C1.79086 0 0 1.79086 0 4V24.9855V27.3333V84C0 89.5228 4.47716 94 10 94H173C178.523 94 183 89.5228 183 84V24.9855C183 19.4627 178.523 14.9855 173 14.9855H58.9187L55.1351 2.81274C54.6152 1.13988 53.0672 0 51.3154 0H4Z"/>
    </mask>
    <path d="M4 0C1.79086 0 0 1.79086 0 4V24.9855V27.3333V84C0 89.5228 4.47716 94 10 94H173C178.523 94 183 89.5228 183 84V24.9855C183 19.4627 178.523 14.9855 173 14.9855H58.9187L55.1351 2.81274C54.6152 1.13988 53.0672 0 51.3154 0H4Z" fill="#68B901" fill-opacity="0.1"/>
    <path d="M58.9187 14.9855L58.4412 15.1339L58.5505 15.4855H58.9187V14.9855ZM55.1351 2.81274L55.6126 2.66433V2.66433L55.1351 2.81274ZM0.5 4C0.5 2.06701 2.067 0.5 4 0.5V-0.5C1.51472 -0.5 -0.5 1.51472 -0.5 4H0.5ZM0.5 24.9855V4H-0.5V24.9855H0.5ZM0.5 27.3333V24.9855H-0.5V27.3333H0.5ZM0.5 84V27.3333H-0.5V84H0.5ZM10 93.5C4.7533 93.5 0.5 89.2467 0.5 84H-0.5C-0.5 89.799 4.20101 94.5 10 94.5V93.5ZM173 93.5H10V94.5H173V93.5ZM182.5 84C182.5 89.2467 178.247 93.5 173 93.5V94.5C178.799 94.5 183.5 89.799 183.5 84H182.5ZM182.5 24.9855V84H183.5V24.9855H182.5ZM173 15.4855C178.247 15.4855 182.5 19.7388 182.5 24.9855H183.5C183.5 19.1865 178.799 14.4855 173 14.4855V15.4855ZM58.9187 15.4855H173V14.4855H58.9187V15.4855ZM54.6577 2.96114L58.4412 15.1339L59.3962 14.8371L55.6126 2.66433L54.6577 2.96114ZM51.3154 0.5C52.8482 0.5 54.2027 1.4974 54.6577 2.96114L55.6126 2.66433C55.0276 0.78237 53.2862 -0.5 51.3154 -0.5V0.5ZM4 0.5H51.3154V-0.5H4V0.5Z" fill="#40A2DB" mask="url(#mask)"/>
  </svg> -->

  
<svg xmlns="http://www.w3.org/2000/svg" preserveAspectRatio="xMidYMid meet"  fill="none">
    <mask id="path-1-inside-1_60_445" fill="white">
      <path fill-rule="evenodd" clip-rule="evenodd" d="M4 0C1.79086 0 0 1.79086 0 4V24.9855V27.3333V84C0 89.5228 4.47716 94 10 94H173C178.523 94 183 89.5228 183 84V24.9855C183 19.4627 178.523 14.9855 173 14.9855H58.9187L55.1351 2.81274C54.6152 1.13988 53.0672 0 51.3154 0H4Z"/>
    </mask>
    <path fill-rule="evenodd" clip-rule="evenodd" d="M4 0C1.79086 0 0 1.79086 0 4V24.9855V27.3333V84C0 89.5228 4.47716 94 10 94H173C178.523 94 183 89.5228 183 84V24.9855C183 19.4627 178.523 14.9855 173 14.9855H58.9187L55.1351 2.81274C54.6152 1.13988 53.0672 0 51.3154 0H4Z" fill="#68B901" fill-opacity="0.1"/>
    <path d="M58.9187 14.9855L58.4412 15.1339L58.5505 15.4855H58.9187V14.9855ZM55.1351 2.81274L55.6126 2.66433V2.66433L55.1351 2.81274ZM0.5 4C0.5 2.06701 2.067 0.5 4 0.5V-0.5C1.51472 -0.5 -0.5 1.51472 -0.5 4H0.5ZM0.5 24.9855V4H-0.5V24.9855H0.5ZM0.5 27.3333V24.9855H-0.5V27.3333H0.5ZM0.5 84V27.3333H-0.5V84H0.5ZM10 93.5C4.7533 93.5 0.5 89.2467 0.5 84H-0.5C-0.5 89.799 4.20101 94.5 10 94.5V93.5ZM173 93.5H10V94.5H173V93.5ZM182.5 84C182.5 89.2467 178.247 93.5 173 93.5V94.5C178.799 94.5 183.5 89.799 183.5 84H182.5ZM182.5 24.9855V84H183.5V24.9855H182.5ZM173 15.4855C178.247 15.4855 182.5 19.7388 182.5 24.9855H183.5C183.5 19.1865 178.799 14.4855 173 14.4855V15.4855ZM58.9187 15.4855H173V14.4855H58.9187V15.4855ZM54.6577 2.96114L58.4412 15.1339L59.3962 14.8371L55.6126 2.66433L54.6577 2.96114ZM51.3154 0.5C52.8482 0.5 54.2027 1.4974 54.6577 2.96114L55.6126 2.66433C55.0276 0.78237 53.2862 -0.5 51.3154 -0.5V0.5ZM4 0.5H51.3154V-0.5H4V0.5Z" fill="#68B901" mask="url(#path-1-inside-1_60_445)"/>
  </svg> 
