<svg width="47" height="43" viewBox="0 0 47 43" fill="none" xmlns="http://www.w3.org/2000/svg">
<path opacity="0.6" fill-rule="evenodd" clip-rule="evenodd" d="M32.7758 13.5395C32.7758 21.0172 25.4387 27.0791 16.3879 27.0791C13.9589 27.0791 11.6532 26.6425 9.57976 25.859L1.85518 31.789L1.85509 19.8029C0.670101 17.9299 0 15.7994 0 13.5395C0 6.06186 7.33712 0 16.3879 0C25.4387 0 32.7758 6.06186 32.7758 13.5395ZM37.1052 14.1268C37.1052 22.6931 28.4045 29.8808 16.6711 31.845C19.5602 35.6975 24.7234 38.2635 30.612 38.2635C33.0408 38.2635 35.3462 37.827 37.4195 37.0437L45.1439 42.9735L45.1439 30.9887C46.3295 29.1154 46.9999 26.9844 46.9999 24.724C46.9999 19.1068 42.8597 14.2886 36.9629 12.2387C37.057 12.8593 37.1052 13.4892 37.1052 14.1268Z" fill="#68B901"/>
</svg>

