<svg width="42" height="44" viewBox="0 0 42 44" fill="none" xmlns="http://www.w3.org/2000/svg">
<path opacity="0.6" fill-rule="evenodd" clip-rule="evenodd" d="M4.93789 2.37494C5.26241 2.01702 5.74918 1.83806 6.39821 1.83806C6.92316 1.83806 7.33835 1.99078 7.64378 2.2962C7.95398 2.6064 8.10908 3.02159 8.10908 3.54177C8.10908 3.8806 8.02795 4.19557 7.86569 4.48668C7.70343 4.77302 7.43141 5.08321 7.04963 5.41727C6.51991 5.88973 6.14767 6.37412 5.93291 6.87043C5.71816 7.36675 5.62033 7.96806 5.63942 8.67436H6.8993C6.88498 8.17327 6.9518 7.74615 7.09974 7.393C7.24768 7.03985 7.50777 6.69625 7.88001 6.36219C8.45268 5.84201 8.86071 5.36716 9.1041 4.93766C9.34748 4.50338 9.46917 4.03808 9.46917 3.54177C9.46917 2.69707 9.18522 2.01464 8.61732 1.49446C8.05419 0.969507 7.31449 0.707031 6.39821 0.707031C5.39126 0.707031 4.59906 1.00291 4.02162 1.59468C3.44417 2.18644 3.1292 3.02636 3.0767 4.11444H4.33659C4.41294 3.3127 4.61338 2.73286 4.93789 2.37494ZM6.9852 9.91992H5.55352V11.4089H6.9852V9.91992ZM38.7767 7.22369L41.114 9.65423L37.4782 13.4351L35.141 11.0045L38.7767 7.22369ZM33.8422 12.3514L36.1794 14.7819L22.9349 42.5982L22.7736 42.4304L14.8605 36.9538L9.83283 42.1822C8.2002 43.88 5.55319 43.88 3.92055 42.1822L1.52257 39.6885C-0.110062 37.9907 -0.110063 35.238 1.52257 33.5402L4.75703 30.1767L7.09473 32.6077L4.70138 35.0965C4.03812 35.7863 4.03812 36.9045 4.70138 37.5943L5.67556 38.6073C6.33881 39.2971 7.41417 39.2971 8.07742 38.6073L12.3158 34.1998L7.25559 26.2931L7.09348 26.1245L33.8422 12.3514Z" fill="#68B901"/>
</svg>
