<svg width="47" height="35" viewBox="0 0 47 35" fill="none" xmlns="http://www.w3.org/2000/svg">
<path opacity="0.6" fill-rule="evenodd" clip-rule="evenodd" d="M6.68733 0C5.25796 0 4.09924 1.15873 4.09924 2.58809V12.9887L0 17.1083L4.09924 21.2279V31.7931C4.09924 33.2225 5.25797 34.3812 6.68733 34.3812H44.4113C45.8406 34.3812 46.9994 33.2225 46.9994 31.7931V2.58809C46.9994 1.15873 45.8406 0 44.4113 0H6.68733ZM13.032 12.2079C13.032 11.4932 13.6114 10.9138 14.3261 10.9138H37.2609C37.9755 10.9138 38.5549 11.4932 38.5549 12.2079V13.9856C38.5549 14.7003 37.9755 15.2797 37.2609 15.2797H14.3261C13.6114 15.2797 13.032 14.7003 13.032 13.9856V12.2079ZM14.3261 19.0991C13.6114 19.0991 13.032 19.6785 13.032 20.3932V22.1709C13.032 22.8856 13.6114 23.465 14.3261 23.465H32.3735C33.0882 23.465 33.6675 22.8856 33.6675 22.1709V20.3932C33.6675 19.6785 33.0882 19.0991 32.3735 19.0991H14.3261Z" fill="#68B901"/>
</svg>

