<svg width="41" height="42" viewBox="0 0 41 42" fill="none" xmlns="http://www.w3.org/2000/svg">
<path opacity="0.6" fill-rule="evenodd" clip-rule="evenodd" d="M12.134 2.47663C12.134 1.1091 13.2426 0.000488281 14.6101 0.000488281H31.3858C32.7533 0.000488281 33.8619 1.1091 33.8619 2.47663V15.6936C33.8619 17.0612 32.7533 18.1698 31.3858 18.1698H14.6101C13.2426 18.1698 12.134 17.0612 12.134 15.6936V2.47663ZM20.0356 3.8728H25.9614V8.34065H20.0356V3.8728ZM17.2129 36.9539H26.2822C26.9272 37.3246 27.729 37.2815 28.3376 36.8247C28.885 36.6172 29.3176 36.1763 29.514 35.6235L39.735 24.8348C40.4946 24.0329 40.4946 22.7329 39.735 21.931L38.6948 20.833C37.9351 20.0312 36.7035 20.0312 35.9439 20.833L26.3151 30.9967H17.414C17.3915 30.9855 17.3696 30.9733 17.3483 30.9602C16.9494 30.8789 16.6493 30.526 16.6493 30.1031V29.1719C16.6493 28.6888 17.0409 28.2971 17.524 28.2971H24.5291C25.4981 28.1583 26.2429 27.3249 26.2429 26.3175V24.6582C26.2429 23.5536 25.3475 22.6582 24.2429 22.6582H15.5205H12.1689C11.4134 22.1284 10.3845 22.215 9.71848 22.9181L4.19752 28.7457C4.16861 28.7763 4.14079 28.8075 4.11408 28.8394L0 33.182L7.98129 41.6067L12.3893 36.9539H15.5445H17.2129Z" fill="#68B901"/>
</svg>

