<svg width="39" height="39" viewBox="0 0 39 39" fill="none" xmlns="http://www.w3.org/2000/svg">
<path opacity="0.6" fill-rule="evenodd" clip-rule="evenodd" d="M3.5005 1.18322C3.5005 0.529743 4.03024 0 4.68372 0H22.1529C22.8064 0 23.3361 0.529744 23.3361 1.18322V9.66208C23.3361 10.3156 22.8064 10.8453 22.1529 10.8453H6.57283L3.50017 14.4131L3.50023 9.13313H3.5005V1.18322ZM27.2792 11.5265C27.2792 11.9699 27.0353 12.3563 26.6744 12.559H32.71L35.7825 16.1265L35.7824 10.8465H35.7818V2.89692C35.7818 2.24345 35.2521 1.71371 34.5986 1.71371H27.2792V11.5265ZM25.0862 21.12C25.0862 23.9572 22.7354 26.2572 19.8356 26.2572C16.9357 26.2572 14.585 23.9572 14.585 21.12C14.585 18.2827 16.9357 15.9827 19.8356 15.9827C22.7354 15.9827 25.0862 18.2827 25.0862 21.12ZM9.0426 26.8274C11.1369 26.8274 12.8347 25.1662 12.8347 23.1171C12.8347 21.068 11.1369 19.4069 9.0426 19.4069C6.94827 19.4069 5.25049 21.068 5.25049 23.1171C5.25049 25.1662 6.94827 26.8274 9.0426 26.8274ZM34.4206 23.1171C34.4206 25.1662 32.7229 26.8274 30.6285 26.8274C28.5342 26.8274 26.8364 25.1662 26.8364 23.1171C26.8364 21.068 28.5342 19.4069 30.6285 19.4069C32.7229 19.4069 34.4206 21.068 34.4206 23.1171ZM30.3368 38.8164V33.1224V32.8515H30.3222C30.027 30.1323 25.3143 27.9708 19.5439 27.9708C13.7735 27.9708 9.06078 30.1323 8.76564 32.8515H8.75098V33.1224V38.5692H5.10449V32.6558V32.3743H5.11908C5.2222 31.3816 5.8675 30.4605 6.91002 29.6833C3.05267 30.2418 0.234934 31.7524 0.0139823 33.5545H0V33.7832V38.5695H8.75098V38.8164H30.3368ZM33.8943 38.8288H18.5767V38.8307H39V33.9042V33.6697H38.9861C38.7659 31.8152 35.9486 30.2605 32.0914 29.6853C33.1327 30.4849 33.7771 31.4324 33.8798 32.4535H33.8943V32.7421V38.8288Z" fill="#68B901"/>
</svg>

