<svg width="100%" height="100%" viewBox="9 6 44 17" fill="none" xmlns="http://www.w3.org/2000/svg">
<path d="M11.4733 10.3106C11.494 9.16016 12.6387 8.3703 13.7216 8.75922L27.9844 13.8814C29.2722 14.3439 29.4971 16.0693 28.3708 16.8464L13.835 26.8764C12.7088 27.6535 11.1755 26.8309 11.2002 25.4628L11.4733 10.3106Z" fill="#F1C56F"/>
<path d="M48.5659 8.73002C49.6489 8.34117 50.7935 9.13111 50.8142 10.2816L51.0863 25.4338C51.1109 26.8019 49.5776 27.6244 48.4514 26.8472L33.9162 16.8163C32.79 16.0391 33.015 14.3137 34.3028 13.8513L48.5659 8.73002Z" fill="#F1C56F"/>
<ellipse cx="31.1671" cy="28.3309" rx="21.4879" ry="17.0462" fill="#FFD480"/>
<path fill-rule="evenodd" clip-rule="evenodd" d="M20.2687 42.9199C19.6344 41.4555 19.2826 39.8385 19.2826 38.1388C19.2826 31.5287 24.6034 26.1702 31.1669 26.1702C37.7305 26.1702 43.0513 31.5287 43.0513 38.1388C43.0513 39.8385 42.6995 41.4554 42.0652 42.9198C38.87 44.4144 35.1446 45.2718 31.1668 45.2718C27.1891 45.2718 23.4639 44.4144 20.2687 42.9199Z" fill="#FFF1D7"/>
<circle cx="23.3631" cy="27.6102" r="1.9207" fill="#3A3A3A"/>
<circle cx="39.2107" cy="27.6102" r="1.9207" fill="#3A3A3A"/>
<path d="M31.663 30.0208C31.3851 30.2848 30.949 30.2848 30.671 30.0208L29.2523 28.6733C28.7806 28.2252 29.0977 27.4308 29.7484 27.4308L32.5856 27.4308C33.2363 27.4308 33.5534 28.2252 33.0817 28.6733L31.663 30.0208Z" fill="#C2917C"/>
</svg>
