<svg width="100%" height="100%" viewBox="3 0 50 39" fill="none" xmlns="http://www.w3.org/2000/svg">
<ellipse cx="29.1042" cy="21.8348" rx="21.4879" ry="17.0462" fill="#EBC988"/>
<path d="M4.80656 14.6197C4.24722 13.788 4.53562 12.6547 5.4245 12.1915L15.0939 7.15267C16.382 6.48145 17.8575 7.64994 17.4993 9.05753L13.9145 23.1442C13.5563 24.5518 11.7018 24.8729 10.8913 23.6676L4.80656 14.6197Z" fill="#CCA65D"/>
<path d="M52.2413 12.2171C53.125 12.6811 53.412 13.8084 52.8576 14.6384L46.8364 23.6541C46.0283 24.864 44.169 24.5452 43.8101 23.1352L40.2326 9.07962C39.8738 7.66961 41.3544 6.50072 42.6426 7.1771L52.2413 12.2171Z" fill="#CCA65D"/>
<path fill-rule="evenodd" clip-rule="evenodd" d="M18.2062 36.4237C17.5718 34.9593 17.22 33.3422 17.22 31.6425C17.22 25.0324 22.5408 19.6738 29.1043 19.6738C35.6679 19.6738 40.9887 25.0324 40.9887 31.6425C40.9887 33.3422 40.6368 34.9592 40.0025 36.4236C36.8073 37.9182 33.082 38.7756 29.1043 38.7756C25.1266 38.7756 21.4013 37.9182 18.2062 36.4237Z" fill="#FFF1D7"/>
<circle cx="21.3011" cy="21.1143" r="1.9207" fill="#3A3A3A"/>
<circle cx="37.147" cy="21.1143" r="1.9207" fill="#3A3A3A"/>
<path d="M29.6002 23.5245C29.3223 23.7885 28.8862 23.7885 28.6082 23.5245L27.1895 22.177C26.7178 21.7289 27.0349 20.9345 27.6856 20.9345L30.5228 20.9345C31.1735 20.9345 31.4906 21.7289 31.0189 22.177L29.6002 23.5245Z" fill="#C2917C"/>
</svg>
