<svg width="100%" height="100%" viewBox="0 -1 44 35" fill="none" xmlns="http://www.w3.org/2000/svg">
<circle cx="7.47885" cy="7.44272" r="7.44272" fill="#3A3A3A"/>
<circle cx="35.569" cy="7.44272" r="7.44272" fill="#3A3A3A"/>
<ellipse cx="21.524" cy="17.047" rx="21.4879" ry="17.0462" fill="#F9F4EE"/>
<path d="M12.1559 11.8911C13.0907 10.8861 14.6243 10.7189 15.7527 11.4989C16.8418 12.2517 17.2378 13.6709 16.6955 14.8776L13.6852 21.5768C12.6676 23.8413 9.83561 24.6293 7.7919 23.2166C5.80876 21.8458 5.50462 19.042 7.14746 17.2758L12.1559 11.8911Z" fill="#3A3A3A"/>
<path d="M25.9733 15.3089C25.3546 14.0858 25.7333 12.5967 26.8614 11.8168C27.9503 11.0641 29.4238 11.1907 30.3695 12.1183L35.6201 17.2685C37.3948 19.0093 37.1463 21.9263 35.1029 23.3389C33.1201 24.7096 30.3761 24.0133 29.2887 21.8636L25.9733 15.3089Z" fill="#3A3A3A"/>
<circle cx="13.7225" cy="16.8064" r="1.9207" fill="#5C5C5C"/>
<circle cx="29.5662" cy="16.8064" r="1.9207" fill="#5C5C5C"/>
<path fill-rule="evenodd" clip-rule="evenodd" d="M10.6275 31.7413C9.99333 30.2771 9.6416 28.6603 9.6416 26.9608C9.6416 20.3507 14.9624 14.9922 21.5259 14.9922C28.0895 14.9922 33.4103 20.3507 33.4103 26.9608C33.4103 28.6603 33.0586 30.2771 32.4244 31.7413C29.2292 33.2359 25.5038 34.0934 21.5259 34.0934C17.5481 34.0934 13.8227 33.2359 10.6275 31.7413Z" fill="#F4E8DB"/>
<path d="M22.0217 19.2173C21.7438 19.4814 21.3077 19.4814 21.0297 19.2173L19.611 17.8699C19.1393 17.4218 19.4564 16.6274 20.1071 16.6274L22.9443 16.6274C23.595 16.6274 23.9121 17.4218 23.4404 17.8699L22.0217 19.2173Z" fill="#3A3A3A"/>
<circle cx="14.0361" cy="16" r="1" fill="#F4F4F4"/>
<circle cx="29.0361" cy="16" r="1" fill="#F4F4F4"/>
</svg>
