<svg width="100%" height="100%" viewBox="0 0 44 45" fill="none" xmlns="http://www.w3.org/2000/svg">
<rect x="9.63965" width="10.8039" height="20.8876" rx="5.40197" fill="#F2BBA3"/>
<rect x="22.6047" width="10.8039" height="20.8876" rx="5.40197" fill="#F2BBA3"/>
<ellipse cx="21.5239" cy="27.6099" rx="21.4879" ry="17.0462" fill="#FFCEB8"/>
<path fill-rule="evenodd" clip-rule="evenodd" d="M10.6259 42.1994C9.99151 40.735 9.63965 39.1179 9.63965 37.4181C9.63965 30.808 14.9604 25.4495 21.524 25.4495C28.0875 25.4495 33.4083 30.808 33.4083 37.4181C33.4083 39.118 33.0564 40.7351 32.422 42.1996C29.2269 43.6941 25.5017 44.5514 21.5241 44.5514C17.5464 44.5514 13.8211 43.694 10.6259 42.1994Z" fill="#FFF0EA"/>
<circle cx="13.7212" cy="26.8904" r="1.9207" fill="#3A3A3A"/>
<circle cx="29.5669" cy="26.8904" r="1.9207" fill="#3A3A3A"/>
<path d="M22.0199 29.3001C21.7419 29.5641 21.3058 29.5641 21.0278 29.3001L19.6092 27.9526C19.1374 27.5045 19.4546 26.7101 20.1052 26.7101L22.9425 26.7101C23.5932 26.7101 23.9103 27.5045 23.4386 27.9526L22.0199 29.3001Z" fill="#C2917C"/>
</svg>
