<svg width="100%" height="100%" viewBox="0 0 39 40" fill="none" xmlns="http://www.w3.org/2000/svg">
<path d="M20.4893 14.5794C22.2781 13.4728 24.6288 14.0873 25.6474 15.9276V15.9276C26.2047 16.9345 27.2008 17.6229 28.3397 17.7883V17.7883C30.4213 18.0905 31.8271 20.0722 31.4244 22.1367V22.1367C31.2041 23.2663 31.5246 24.4339 32.2908 25.2926V25.2926C33.6912 26.8622 33.4942 29.2838 31.8587 30.6065V30.6065C30.9639 31.3302 30.4589 32.4307 30.4938 33.581V33.581C30.5577 35.6835 28.8502 37.412 26.7472 37.3739V37.3739C25.5965 37.3531 24.5023 37.8715 23.7896 38.7752V38.7752C22.4871 40.4268 20.068 40.6534 18.4814 39.2724V39.2724C17.6134 38.5168 16.4419 38.2106 15.3151 38.4448V38.4448C13.2557 38.8727 11.2569 37.4914 10.9292 35.4137V35.4137C10.7499 34.2768 10.0493 33.2893 9.03564 32.7444V32.7444C7.18296 31.7484 6.53973 29.4055 7.62423 27.6032V27.6032C8.2176 26.6171 8.31573 25.4102 7.88947 24.3412V24.3412C7.11039 22.3874 8.12369 20.1791 10.1129 19.4956V19.4956C11.2013 19.1216 12.0523 18.2602 12.4129 17.1673V17.1673C13.0719 15.1698 15.2676 14.1295 17.2309 14.8846V14.8846C18.305 15.2977 19.5106 15.1848 20.4893 14.5794V14.5794Z" fill="#6D5D4F"/>
<path d="M23.4554 9.75961C25.3989 8.55744 27.9528 9.225 29.0594 11.2244L29.1177 11.3298C29.7232 12.4238 30.8054 13.1717 32.0427 13.3513L32.162 13.3686C34.4235 13.697 35.9508 15.85 35.5133 18.0929L35.4902 18.2112C35.2509 19.4384 35.5991 20.7069 36.4315 21.6399L36.5117 21.7298C38.0331 23.435 37.8192 26.066 36.0423 27.503L35.9486 27.5787C34.9764 28.365 34.4278 29.5606 34.4657 30.8104L34.4694 30.9308C34.5388 33.215 32.6837 35.0929 30.3989 35.0516L30.2784 35.0494C29.0283 35.0267 27.8395 35.59 27.0652 36.5718L26.9906 36.6664C25.5755 38.4607 22.9473 38.7069 21.2236 37.2066L21.1327 37.1275C20.1896 36.3066 18.9169 35.9739 17.6927 36.2283L17.5747 36.2528C15.3373 36.7178 13.1658 35.217 12.8097 32.9597L12.791 32.8407C12.5962 31.6056 11.835 30.5326 10.7337 29.9406L10.6276 29.8836C8.61479 28.8016 7.91597 26.2561 9.09421 24.298L9.15632 24.1948C9.80099 23.1234 9.9076 21.8123 9.44449 20.6509L9.39987 20.539C8.55345 18.4163 9.65435 16.0171 11.8155 15.2745L11.9295 15.2354C13.112 14.829 14.0364 13.8932 14.4282 12.7058L14.466 12.5914C15.182 10.4212 17.5675 9.29102 19.7004 10.1113L19.8128 10.1546C20.9799 10.6034 22.2896 10.4807 23.353 9.82298L23.4554 9.75961Z" fill="#806D5D"/>
<path d="M17.0198 3.03997C18.5961 1.3854 21.2358 1.38541 22.812 3.03997L23.792 4.06859C24.6544 4.97387 25.8906 5.42379 27.1332 5.28467L28.545 5.1266C30.816 4.87234 32.8382 6.5691 32.9821 8.84978L33.0716 10.2676C33.1504 11.5155 33.8081 12.6547 34.8494 13.3469L36.0326 14.1333C37.9357 15.3983 38.3941 17.9979 37.0384 19.8376L36.1956 20.9812C35.4538 21.9878 35.2254 23.2833 35.5781 24.4828L35.979 25.8458C36.6237 28.0381 35.3039 30.3242 33.0828 30.862L31.7021 31.1963C30.4869 31.4906 29.4791 32.3362 28.9783 33.4818L28.4093 34.7836C27.494 36.8775 25.0135 37.7803 22.9664 36.7646L21.6937 36.1332C20.5737 35.5775 19.2582 35.5775 18.1381 36.1332L16.8655 36.7646C14.8184 37.7803 12.3379 36.8775 11.4225 34.7836L10.8535 33.4818C10.3527 32.3362 9.34498 31.4906 8.12975 31.1963L6.74898 30.862C4.52794 30.3242 3.2081 28.0381 3.85286 25.8458L4.2537 24.4828C4.60647 23.2833 4.37804 21.9878 3.63627 20.9812L2.79345 19.8376C1.43774 17.9979 1.89611 15.3983 3.79926 14.1333L4.98241 13.3469C6.02371 12.6547 6.68145 11.5155 6.76022 10.2676L6.84971 8.84978C6.99367 6.5691 9.01579 4.87234 11.2868 5.1266L12.6987 5.28467C13.9413 5.42379 15.1774 4.97387 16.0399 4.06858L17.0198 3.03997Z" fill="#937E6B"/>
<path fill-rule="evenodd" clip-rule="evenodd" d="M20.8681 0.917996C20.9198 0.738898 21.107 0.63567 21.2861 0.687431C21.4652 0.739192 21.5684 0.92634 21.5167 1.10544L19.1573 9.269L26.7871 2.07011C26.9227 1.94217 27.1363 1.94838 27.2642 2.08398C27.3922 2.21957 27.386 2.43321 27.2504 2.56115L21.211 8.25949L28.3664 4.0354C28.5269 3.94063 28.7339 3.99395 28.8287 4.15449C28.9234 4.31503 28.8701 4.522 28.7096 4.61678L18.9913 10.3538L18.9027 10.4375C18.7671 10.5654 18.5534 10.5592 18.4255 10.4236C18.4119 10.4093 18.3999 10.394 18.3894 10.3781C18.2645 10.3003 18.201 10.1464 18.2439 9.99801L20.8681 0.917996Z" fill="#6AB869"/>
<path fill-rule="evenodd" clip-rule="evenodd" d="M12.7222 32.0684C13.8611 33.3577 15.7591 33.8156 17.4108 33.0472C18.5445 32.5197 19.8613 32.5528 20.967 33.1365C22.988 34.2032 25.493 33.362 26.4606 31.2918C26.99 30.1591 28.02 29.338 29.2422 29.0743C31.4761 28.5924 32.8544 26.3379 32.2648 24.13C31.9423 22.922 32.2035 21.6309 32.9703 20.6433C34.0875 19.2044 34.0641 17.2521 33.061 15.8544L31.4926 17.1048C31.9374 17.7967 31.9272 18.7256 31.3906 19.4168C30.2404 20.8982 29.8487 22.8339 30.3325 24.6459C30.6273 25.7499 29.9374 26.8783 28.8205 27.1193C26.9872 27.5148 25.4429 28.7459 24.6487 30.445C24.165 31.4801 22.9111 31.9011 21.9006 31.3677C20.242 30.4923 18.2677 30.4427 16.5672 31.2338C15.7738 31.6029 14.866 31.4058 14.2906 30.818L12.7222 32.0684Z" fill="#806D5D"/>
<circle cx="13.5023" cy="17.5534" r="1.35023" fill="#55483D"/>
<circle cx="24.3041" cy="17.5534" r="1.35023" fill="#55483D"/>
<path fill-rule="evenodd" clip-rule="evenodd" d="M15.6166 20.7878C15.445 22.6036 16.7108 24.2652 18.5373 24.5596C20.3639 24.854 22.0876 23.6741 22.4952 21.8965L21.5049 21.7369C21.1876 22.9691 19.9775 23.7788 18.6964 23.5724C17.4154 23.3659 16.521 22.2169 16.6069 20.9475L15.6166 20.7878Z" fill="#55483D"/>
</svg>
