<svg width="100%" height="100%" viewBox="0 -1 44 38" fill="none" xmlns="http://www.w3.org/2000/svg">
<rect x="7.03613" width="10" height="13" rx="5" fill="#E6A04D"/>
<rect x="26.0361" width="10" height="13" rx="5" fill="#E6A04D"/>
<ellipse cx="21.524" cy="20.0472" rx="21.4879" ry="17.0462" fill="#EAAD66"/>
<path fill-rule="evenodd" clip-rule="evenodd" d="M10.6256 34.7413C9.99144 33.2771 9.63971 31.6603 9.63971 29.9608C9.63971 23.3507 14.9605 17.9922 21.5241 17.9922C28.0876 17.9922 33.4084 23.3507 33.4084 29.9608C33.4084 31.6603 33.0567 33.2771 32.4225 34.7413C29.2273 36.2359 25.5019 37.0934 21.524 37.0934C17.5462 37.0934 13.8208 36.2359 10.6256 34.7413Z" fill="#E8D1B5"/>
<circle cx="13.7211" cy="19.8069" r="1.9207" fill="#3A3A3A"/>
<circle cx="29.567" cy="19.8069" r="1.9207" fill="#3A3A3A"/>
<path d="M22.02 22.2176C21.742 22.4816 21.3059 22.4816 21.0279 22.2176L19.6093 20.8701C19.1375 20.422 19.4546 19.6276 20.1053 19.6276L22.9426 19.6276C23.5932 19.6276 23.9104 20.422 23.4386 20.8701L22.02 22.2176Z" fill="#735C40"/>
<path fill-rule="evenodd" clip-rule="evenodd" d="M26.0361 3.37645C27.0654 3.55093 28.0673 3.78387 29.0361 4.07069V7.49902C29.0361 8.32745 28.3646 8.99902 27.5361 8.99902C26.7077 8.99902 26.0361 8.32745 26.0361 7.49902V3.37645ZM20.0361 3.04023C20.5277 3.01355 21.0239 3 21.524 3C22.0324 3 22.5366 3.014 23.0361 3.04155V9.49902C23.0361 10.3274 22.3646 10.999 21.5361 10.999C20.7077 10.999 20.0361 10.3275 20.0361 9.49902V3.04023ZM17.0361 3.37234V7.49902C17.0361 8.32745 16.3646 8.99902 15.5361 8.99902C14.7077 8.99902 14.0361 8.32745 14.0361 7.49902V4.06352C15.005 3.77774 16.007 3.54582 17.0361 3.37234Z" fill="#735C40"/>
</svg>
