<svg width="100%" height="100%" viewBox="0 0 44 35" fill="none" xmlns="http://www.w3.org/2000/svg">
<circle cx="7.47885" cy="7.72397" r="7.44272" fill="#B99367"/>
<circle cx="35.569" cy="7.72397" r="7.44272" fill="#B99367"/>
<ellipse cx="21.524" cy="17.3282" rx="21.4879" ry="17.0462" fill="#C49E72"/>
<path fill-rule="evenodd" clip-rule="evenodd" d="M10.6256 32.0223C9.99144 30.5581 9.63971 28.9413 9.63971 27.2418C9.63971 20.6317 14.9605 15.2732 21.5241 15.2732C28.0876 15.2732 33.4084 20.6317 33.4084 27.2418C33.4084 28.9413 33.0567 30.5581 32.4225 32.0223C29.2273 33.5169 25.5019 34.3744 21.524 34.3744C17.5462 34.3744 13.8208 33.5169 10.6256 32.0223Z" fill="#E8D1B5"/>
<circle cx="13.7211" cy="17.0877" r="1.9207" fill="#3A3A3A"/>
<circle cx="29.567" cy="17.0877" r="1.9207" fill="#3A3A3A"/>
<path d="M22.02 19.4983C21.742 19.7624 21.3059 19.7624 21.0279 19.4983L19.6093 18.1509C19.1375 17.7028 19.4546 16.9084 20.1053 16.9084L22.9426 16.9084C23.5932 16.9084 23.9104 17.7028 23.4386 18.1509L22.02 19.4983Z" fill="#735C40"/>
</svg>
