<svg width="100%" height="100%" viewBox="0 0 45 33" fill="none" xmlns="http://www.w3.org/2000/svg">
<path fill-rule="evenodd" clip-rule="evenodd" d="M22.4521 0C20.1688 0 18.0813 0.837929 16.4802 2.22305C15.4947 1.8592 14.4293 1.66048 13.3174 1.66048C8.27387 1.66048 4.1853 5.74905 4.1853 10.7926C4.1853 11.2715 4.22216 11.7418 4.29321 12.2008C1.73491 13.819 0.0361328 16.6732 0.0361328 19.9242C0.0361328 24.9677 4.1247 29.0563 9.16821 29.0563C9.30814 29.0563 9.44733 29.0531 9.58572 29.0469C11.2606 31.0806 13.7981 32.3772 16.6383 32.3772C18.6577 32.3772 20.5239 31.7218 22.0359 30.6121C23.548 31.7218 25.4142 32.3772 27.4335 32.3772C30.2738 32.3772 32.8112 31.0806 34.4861 29.0469C34.6245 29.0531 34.7637 29.0563 34.9036 29.0563C39.9471 29.0563 44.0357 24.9677 44.0357 19.9242C44.0357 17.7515 43.277 15.756 42.0099 14.1883C42.2477 13.3744 42.3752 12.5135 42.3752 11.6228C42.3752 6.57929 38.2867 2.49072 33.2432 2.49072C31.9013 2.49072 30.6271 2.78012 29.4795 3.2999C27.8044 1.28374 25.2782 0 22.4521 0Z" fill="url(#paint0_linear_38_5716)"/>
<circle cx="14.9568" cy="14.9207" r="1.9207" fill="#3B6387"/>
<circle cx="28.8045" cy="14.9207" r="1.9207" fill="#3B6387"/>
<path fill-rule="evenodd" clip-rule="evenodd" d="M17.5713 19.0059C17.3472 21.3841 19.0053 23.5603 21.3978 23.946C23.7903 24.3316 26.0482 22.7865 26.5827 20.4582L25.5926 20.2987C25.1482 22.0814 23.404 23.2564 21.5569 22.9587C19.7099 22.661 18.4231 20.9975 18.5613 19.1654L17.5713 19.0059Z" fill="#3B6387"/>
<defs>
<linearGradient id="paint0_linear_38_5716" x1="32.0361" y1="32" x2="7.53613" y2="-9.5" gradientUnits="userSpaceOnUse">
<stop stop-color="#BCE3FF"/>
<stop offset="1" stop-color="white"/>
</linearGradient>
</defs>
</svg>
