<svg width="32" height="32" viewBox="0 0 32 32" fill="none" xmlns="http://www.w3.org/2000/svg">
<rect x="0.25" y="0.25" width="31.5" height="31.5" rx="7.75" fill="white" stroke="#40A2DB" stroke-width="0.5"/>
<path opacity="0.6" fill-rule="evenodd" clip-rule="evenodd" d="M10.332 8C8.90265 8 7.74393 9.15873 7.74393 10.5881V13.6668L5.99902 15.4646L7.74393 17.2624V20.4119C7.74393 21.8413 8.90266 23 10.332 23H23.4118C24.8412 23 25.9999 21.8413 25.9999 20.4119V10.5881C25.9999 9.15873 24.8412 8 23.4118 8H10.332ZM11.5447 13.7141C11.5447 13.1881 11.9711 12.7617 12.4971 12.7617H21.4535C21.9795 12.7617 22.4059 13.1881 22.4059 13.7141C22.4059 14.2401 21.9795 14.6665 21.4535 14.6665H12.4971C11.9711 14.6665 11.5447 14.2401 11.5447 13.7141ZM12.4951 16.333C11.9692 16.333 11.5428 16.7594 11.5428 17.2854C11.5428 17.8114 11.9691 18.2378 12.4951 18.2378H19.3717C19.8977 18.2378 20.3241 17.8114 20.3241 17.2854C20.3241 16.7594 19.8977 16.333 19.3717 16.333H12.4951Z" fill="#40A2DB"/>
</svg>
