<svg width="32" height="32" viewBox="0 0 32 32" fill="none" xmlns="http://www.w3.org/2000/svg">
<rect x="0.25" y="0.25" width="31.5" height="31.5" rx="7.75" fill="white" stroke="#40A2DB" stroke-width="0.5"/>
<path opacity="0.6" fill-rule="evenodd" clip-rule="evenodd" d="M20.0973 9.49331C20.0973 9.6116 20.1087 9.72667 20.1303 9.83702H17.6227V11.9047H19.8907L20.2746 13.111L17.1461 19.9457H16.0273L15.3102 16.0404H16.0905V13.9727H11.9016V8.91797H6V16.0399H9.43589C9.00656 16.7055 8.31698 17.9667 8.50701 18.9577C8.55938 19.2308 8.69241 19.5556 8.80515 19.7994C8.59382 20.2902 8.47439 20.8478 8.47439 21.4391C8.47439 23.4058 9.7955 25.0001 11.4252 25.0001C12.8929 25.0001 14.1103 23.707 14.3378 22.0134H20.124C20.3516 23.707 21.569 25.0001 23.0367 25.0001C24.6663 25.0001 25.9875 23.4058 25.9875 21.4391C25.9875 19.9228 25.2021 18.6278 24.0954 18.1142V18.1075H25.9995V16.0398L24.0954 16.0398H23.4447L21.8366 10.9866H23.5245V8H21.4303V8.00439C21.3988 8.00148 21.3669 8 21.3348 8C20.6514 8 20.0973 8.66858 20.0973 9.49331ZM24.2736 21.439C24.2736 22.2637 23.7196 22.9323 23.0362 22.9323C22.3528 22.9323 21.7988 22.2637 21.7988 21.439C21.7988 20.6142 22.3528 19.9457 23.0362 19.9457C23.7196 19.9457 24.2736 20.6142 24.2736 21.439ZM12.6621 21.4379C12.6621 22.2627 12.1081 22.9312 11.4247 22.9312C10.7413 22.9312 10.1873 22.2627 10.1873 21.4379C10.1873 20.6132 10.7413 19.9446 11.4247 19.9446C12.1081 19.9446 12.6621 20.6132 12.6621 21.4379ZM10.1877 10.9842H7.71289V13.9708H10.1877V10.9842Z" fill="#40A2DB"/>
</svg>
