<svg width="38" height="38" viewBox="0 0 38 38" fill="none" xmlns="http://www.w3.org/2000/svg">
<rect x="0.5" y="0.5" width="37" height="37" rx="7.5" fill="white" stroke="#B5B5B5"/>
<rect x="10" y="25.076" width="19.0001" height="2.92316" rx="0.125" fill="#B5B5B5"/>
<path d="M13.364 9.34197C13.3811 9.14842 13.5433 9 13.7376 9H24.926C25.1203 9 25.2824 9.14842 25.2995 9.34197L26.5904 23.9385C26.6097 24.1578 26.437 24.3466 26.2168 24.3466H12.4467C12.2266 24.3466 12.0538 24.1578 12.0732 23.9385L13.364 9.34197Z" fill="#B5B5B5"/>
<path fill-rule="evenodd" clip-rule="evenodd" d="M16.0343 10.4622H15.1374C14.9398 10.4622 14.7761 10.6156 14.7632 10.8127L14.0233 22.1208C14.0091 22.337 14.1807 22.5202 14.3975 22.5202H15.2762L16.0343 10.4622Z" fill="white"/>
</svg>
