<svg width="32" height="32" viewBox="0 0 32 32" fill="none" xmlns="http://www.w3.org/2000/svg">
<rect x="0.25" y="0.25" width="31.5" height="31.5" rx="7.75" fill="white" stroke="#68B901" stroke-width="0.5"/>
<path opacity="0.6" fill-rule="evenodd" clip-rule="evenodd" d="M15.9997 6L20.9351 8.48889H11.0643L15.9997 6ZM20.9448 8.48938H11.0547V12.8458H10.1935C7.96217 12.8458 6.13784 14.5886 6.00746 16.7872H6V17.0394V17.9856V26.1206H26V17.9856V17.0394V16.7872H25.9925C25.8622 14.5886 24.0378 12.8458 21.8065 12.8458H20.9448V8.48938ZM16.1065 13.0526C16.7004 13.0526 17.1818 12.5883 17.1818 12.0156C17.1818 11.4428 16.7004 10.9785 16.1065 10.9785C15.5127 10.9785 15.0312 11.4428 15.0312 12.0156C15.0312 12.5883 15.5127 13.0526 16.1065 13.0526ZM14.8164 16.5781H16.9669V18.6522H14.8164V16.5781ZM22.129 16.5781H19.9784V18.6522H22.129V16.5781ZM9.87103 16.5791H12.0216V18.6532H9.87103V16.5791ZM12.0216 20.1045H9.87103V22.1786H12.0216V20.1045ZM19.9784 20.1045H22.129V22.1786H19.9784V20.1045ZM15.8936 20.1064C15.34 20.1064 14.8841 20.4696 14.8249 20.9365H14.8184V21.0332L14.8184 21.0398L14.8184 21.0464V23.8402H16.9689V20.9365H16.9624C16.9032 20.4696 16.4473 20.1064 15.8936 20.1064Z" fill="#68B901"/>
</svg>
