<svg width="32" height="32" viewBox="0 0 32 32" fill="none" xmlns="http://www.w3.org/2000/svg">
<rect x="0.25" y="0.25" width="31.5" height="31.5" rx="7.75" fill="white" stroke="#68B901" stroke-width="0.5"/>
<path opacity="0.6" fill-rule="evenodd" clip-rule="evenodd" d="M20.5013 12.293C20.5013 15.7686 17.2551 18.586 13.2507 18.586C12.176 18.586 11.1559 18.3831 10.2386 18.019L6.82117 20.775L6.82113 15.2047C6.29662 14.3341 6 13.3436 6 12.293C6 8.81748 9.24623 6 13.2507 6C17.2551 6 20.5013 8.81748 20.5013 12.293ZM22.4171 12.5659C22.4171 16.5476 18.5671 19.8885 13.3753 20.8012C14.6535 22.5921 16.9381 23.7849 19.5436 23.7849C20.6183 23.7849 21.6384 23.582 22.5557 23.2179L25.9731 25.9739L25.9732 20.4036C26.4977 19.5329 26.7943 18.5425 26.7943 17.4919C26.7943 14.8814 24.9629 12.6421 22.3543 11.6892C22.3958 11.9774 22.4171 12.2698 22.4171 12.5659Z" fill="#68B901"/>
</svg>
