<svg width="31" height="31" viewBox="0 0 31 31" fill="none" xmlns="http://www.w3.org/2000/svg">
<rect x="0.5" y="0.5" width="30" height="30" rx="4.5" stroke="#68B901"/>
<rect x="7.96582" y="6.41382" width="5.26817" height="6.84863" rx="2.63409" fill="#E6A04D"/>
<rect x="17.9736" y="6.41382" width="5.26818" height="6.84863" rx="2.63409" fill="#E6A04D"/>
<ellipse cx="15.5961" cy="16.9754" rx="11.3202" ry="8.98025" fill="#EAAD66"/>
<path fill-rule="evenodd" clip-rule="evenodd" d="M9.85331 24.7177C9.51926 23.9463 9.33398 23.0946 9.33398 22.1993C9.33398 18.717 12.1371 15.894 15.5949 15.894C19.0527 15.894 21.8557 18.717 21.8557 22.1993C21.8557 23.0945 21.6705 23.9461 21.3366 24.7173C19.6531 25.5049 17.6904 25.9567 15.5946 25.9567C13.4991 25.9567 11.5366 25.505 9.85331 24.7177Z" fill="#E8D1B5"/>
<ellipse cx="11.486" cy="16.8483" rx="1.01186" ry="1.01186" fill="#3A3A3A"/>
<ellipse cx="19.8297" cy="16.8483" rx="1.01186" ry="1.01186" fill="#3A3A3A"/>
<path d="M16.062 17.9238C15.8004 18.1723 15.39 18.1723 15.1284 17.9238V17.9238C14.6844 17.5021 14.9829 16.7545 15.5952 16.7545V16.7545C16.2075 16.7545 16.5059 17.5021 16.062 17.9238V17.9238Z" fill="#735C40"/>
<path fill-rule="evenodd" clip-rule="evenodd" d="M17.9914 8.19466C18.5337 8.28712 19.0615 8.41038 19.5719 8.56204V10.365C19.5719 10.8014 19.2181 11.1552 18.7817 11.1552C18.3452 11.1552 17.9914 10.8014 17.9914 10.365V8.19466ZM14.8255 8.0149C15.0819 8.00114 15.3406 7.99414 15.6014 7.99414C15.8719 7.99414 16.1402 8.00167 16.406 8.01647V11.4196C16.406 11.8561 16.0522 12.2099 15.6158 12.2099C15.1793 12.2099 14.8255 11.8561 14.8255 11.4196V8.0149ZM13.2509 8.18799V10.365C13.2509 10.8014 12.8971 11.1552 12.4606 11.1552C12.0242 11.1552 11.6704 10.8014 11.6704 10.365V8.55038C12.1809 8.40041 12.7087 8.27881 13.2509 8.18799Z" fill="#735C40"/>
</svg>


