<svg width="52" height="36" viewBox="0 0 52 36" fill="none" xmlns="http://www.w3.org/2000/svg">
<path opacity="0.6" fill-rule="evenodd" clip-rule="evenodd" d="M45.5648 -0.00219727H40.1201V0.00730638C40.0384 0.00128959 39.9558 -0.00177385 39.8725 -0.00177385C38.0957 -0.00177385 36.6552 1.39143 36.6552 3.11003C36.6552 3.35713 36.685 3.59751 36.7413 3.82798H30.2209V8.13663H36.1161L37.1142 10.6504L28.9799 24.8934H26.0711L24.2066 16.7562H26.2335V12.4475H15.3439V1.91383H0V16.7547H8.93331C7.81704 18.1418 6.0244 20.7698 6.51846 22.8347C6.65469 23.404 7.0009 24.0815 7.29416 24.5896C6.74471 25.6123 6.43421 26.7743 6.43421 28.0064C6.43421 32.1047 9.86907 35.4269 14.1062 35.4269C17.9225 35.4269 21.088 32.7318 21.6791 29.202H36.7258C37.3169 32.7318 40.4824 35.4269 44.2988 35.4269C48.5359 35.4269 51.9707 32.1047 51.9707 28.0064C51.9707 24.8459 49.9278 22.1469 47.0496 21.0772V21.0634H51.9992V16.7548L47.0496 16.7548H45.3569L41.1745 6.22141H45.5648V-0.00219727ZM47.516 28.0052C47.516 29.7238 46.0755 31.117 44.2987 31.117C42.5218 31.117 41.0814 29.7238 41.0814 28.0052C41.0814 26.2866 42.5218 24.8933 44.2987 24.8933C46.0755 24.8933 47.516 26.2866 47.516 28.0052ZM17.3225 28.0052C17.3225 29.7238 15.8821 31.117 14.1052 31.117C12.3284 31.117 10.888 29.7238 10.888 28.0052C10.888 26.2866 12.3284 24.8934 14.1052 24.8934C15.8821 24.8934 17.3225 26.2866 17.3225 28.0052ZM10.8888 6.22122H4.45426V12.4448H10.8888V6.22122Z" fill="#68B901"/>
</svg>

