<svg width="39" height="37" viewBox="0 0 39 37" fill="none" xmlns="http://www.w3.org/2000/svg">
<path opacity="0.6" fill-rule="evenodd" clip-rule="evenodd" d="M7.28788 0H0V3.26874H4.18613L11.025 18.5522L9.86854 19.6367C8.76463 19.7898 7.87996 20.6287 7.65851 21.7092L7.62106 21.7444C6.56235 22.7372 6.56235 24.347 7.62106 25.3398L7.6265 25.3449C7.78665 26.592 8.82087 27.5655 10.0951 27.6313C11.0672 28.3381 12.434 28.3393 13.4074 27.6349H32.8614C32.875 27.6349 32.8885 27.6348 32.902 27.6346H35.4892V25.0423L35.4894 25.0068V23.5891H12.2787L15.8667 20.206H35.9217C37.0828 20.206 38.0241 19.2647 38.0241 18.1036V11.3136L38.024 11.291V3.26918H13.2415L13.2416 3.26812L8.72284 3.26812L7.28799 0.000258467V0H7.28788ZM12.1993 36.5493C14.3868 36.5493 16.1601 34.8862 16.1601 32.8348C16.1601 30.7833 14.3868 29.1203 12.1993 29.1203C10.0118 29.1203 8.23842 30.7833 8.23842 32.8348C8.23842 34.8862 10.0118 36.5493 12.1993 36.5493ZM36.123 32.8348C36.123 34.8862 34.3497 36.5493 32.1621 36.5493C29.9746 36.5493 28.2013 34.8862 28.2013 32.8348C28.2013 30.7833 29.9746 29.1203 32.1621 29.1203C34.3497 29.1203 36.123 30.7833 36.123 32.8348ZM28.2016 7.42697H19.3292V11.29H28.2016V7.42697Z" fill="#68B901"/>
</svg>
