<svg width="43" height="44" viewBox="0 0 43 44" fill="none" xmlns="http://www.w3.org/2000/svg">
<path opacity="0.6" fill-rule="evenodd" clip-rule="evenodd" d="M21.4998 0.000488281L32.1108 5.33457H32.1316V14.6696H38.8064C41.1225 14.6696 43 16.5471 43 18.8631V23.1156V30.4792V43.1188H0V30.4792V23.1156V18.8631C0 16.5471 1.87751 14.6696 4.19355 14.6696H10.8679V5.33457H10.8889L21.4998 0.000488281ZM21.7308 15.1148C23.0076 15.1148 24.0426 14.1197 24.0426 12.8922C24.0426 11.6648 23.0076 10.6697 21.7308 10.6697C20.454 10.6697 19.419 11.6648 19.419 12.8922C19.419 14.1197 20.454 15.1148 21.7308 15.1148ZM18.9571 22.6715H23.5807V27.1166H18.9571V22.6715ZM34.6771 22.6715H30.0535V27.1166H34.6771V22.6715ZM8.32172 22.673H12.9454V27.1182H8.32172V22.673ZM12.9454 30.2294H8.32172V34.6746H12.9454V30.2294ZM30.0535 30.231H34.6771V34.6761H30.0535V30.231ZM21.2681 30.2317C20.0777 30.2317 19.0975 31.0101 18.9702 32.0107H18.9564V32.2063L18.9562 32.232L18.9564 32.2578V38.2339H23.5801V32.0107H23.5659C23.4386 31.0101 22.4584 30.2317 21.2681 30.2317Z" fill="#68B901"/>
</svg>


