<svg width="45" height="32" viewBox="0 0 45 32" fill="none" xmlns="http://www.w3.org/2000/svg">
<path opacity="0.6" d="M32.625 16C35.73 16 38.2275 13.44 38.2275 10.2857C38.2275 7.13143 35.73 4.57143 32.625 4.57143C29.52 4.57143 27 7.13143 27 10.2857C27 13.44 29.52 16 32.625 16ZM15.75 13.7143C19.485 13.7143 22.4775 10.6514 22.4775 6.85714C22.4775 3.06286 19.485 0 15.75 0C12.015 0 9 3.06286 9 6.85714C9 10.6514 12.015 13.7143 15.75 13.7143ZM32.625 20.5714C28.5075 20.5714 20.25 22.6743 20.25 26.8571V32H45V26.8571C45 22.6743 36.7425 20.5714 32.625 20.5714ZM15.75 18.2857C10.5075 18.2857 0 20.96 0 26.2857V32H15.75V26.8571C15.75 24.9143 16.4925 21.5086 21.0825 18.9257C19.125 18.5143 17.235 18.2857 15.75 18.2857Z" fill="#68B901"/>
</svg>

