<svg width="88" height="84" viewBox="0 0 88 84" fill="none" xmlns="http://www.w3.org/2000/svg">
<g filter="url(#filter0_d_556_28)">
<rect x="4" y="4" width="80" height="76" rx="10" fill="white"/>
</g>
<path d="M24.0078 20.3477V21.3906H19.8125V22.2109C21.7109 22.334 22.8242 22.9902 22.8359 24.1211C22.8242 25.3281 21.4531 26.0195 19.168 26.0195C16.8594 26.0195 15.4766 25.3281 15.4766 24.1211C15.4766 22.9902 16.6016 22.334 18.5117 22.2109V21.3906H14.3516V20.3477H24.0078ZM19.168 23.1836C17.6211 23.1836 16.7891 23.5117 16.8008 24.1211C16.7891 24.7188 17.6211 25.0352 19.168 25.0352C20.6797 25.0352 21.5234 24.7188 21.5352 24.1211C21.5234 23.5117 20.6797 23.1836 19.168 23.1836ZM19.168 15.6367C21.5117 15.6367 22.9766 16.3984 22.9883 17.6875C22.9766 18.9648 21.5117 19.7266 19.168 19.7266C16.8477 19.7266 15.3477 18.9648 15.3477 17.6875C15.3477 16.3984 16.8477 15.6367 19.168 15.6367ZM19.168 16.6562C17.6211 16.6562 16.6953 17.0195 16.707 17.6875C16.6953 18.3555 17.6211 18.6953 19.168 18.707C20.7148 18.6953 21.6406 18.3555 21.6406 17.6875C21.6406 17.0195 20.7148 16.6562 19.168 16.6562ZM28.6016 16.9727C28.5898 18.4141 29.4336 19.7266 31.0977 20.2539L30.3945 21.2734C29.2402 20.8691 28.4316 20.1016 27.9805 19.0938C27.5117 20.248 26.627 21.1562 25.3438 21.6016L24.6523 20.5469C26.4102 19.9727 27.2891 18.5547 27.2891 17.0312V16.0234H28.6016V16.9727ZM33.5938 15.4492V21.6836H32.293V18.5664H30.1836V17.5H32.293V15.4492H33.5938ZM30.0078 21.9648C32.2578 21.9648 33.6289 22.7148 33.6289 24.0039C33.6289 25.293 32.2578 26.0312 30.0078 26.0312C27.7695 26.0312 26.3984 25.293 26.4102 24.0039C26.3984 22.7148 27.7695 21.9648 30.0078 21.9648ZM30.0078 22.9727C28.5312 22.9727 27.6992 23.3359 27.6992 24.0039C27.6992 24.6484 28.5312 25.0117 30.0078 25.0117C31.4844 25.0117 32.3281 24.6484 32.3281 24.0039C32.3281 23.3359 31.4844 22.9727 30.0078 22.9727ZM44.75 20.3477V21.3906H40.5547V22.2109C42.4531 22.334 43.5664 22.9902 43.5781 24.1211C43.5664 25.3281 42.1953 26.0195 39.9102 26.0195C37.6016 26.0195 36.2188 25.3281 36.2188 24.1211C36.2188 22.9902 37.3438 22.334 39.2539 22.2109V21.3906H35.0938V20.3477H44.75ZM39.9102 23.1836C38.3633 23.1836 37.5312 23.5117 37.543 24.1211C37.5312 24.7188 38.3633 25.0352 39.9102 25.0352C41.4219 25.0352 42.2656 24.7188 42.2773 24.1211C42.2656 23.5117 41.4219 23.1836 39.9102 23.1836ZM39.9102 15.6367C42.2539 15.6367 43.7188 16.3984 43.7305 17.6875C43.7188 18.9648 42.2539 19.7266 39.9102 19.7266C37.5898 19.7266 36.0898 18.9648 36.0898 17.6875C36.0898 16.3984 37.5898 15.6367 39.9102 15.6367ZM39.9102 16.6562C38.3633 16.6562 37.4375 17.0195 37.4492 17.6875C37.4375 18.3555 38.3633 18.6953 39.9102 18.707C41.457 18.6953 42.3828 18.3555 42.3828 17.6875C42.3828 17.0195 41.457 16.6562 39.9102 16.6562ZM49.3438 16.9727C49.332 18.4141 50.1758 19.7266 51.8398 20.2539L51.1367 21.2734C49.9824 20.8691 49.1738 20.1016 48.7227 19.0938C48.2539 20.248 47.3691 21.1562 46.0859 21.6016L45.3945 20.5469C47.1523 19.9727 48.0312 18.5547 48.0312 17.0312V16.0234H49.3438V16.9727ZM54.3359 15.4492V21.6836H53.0352V18.5664H50.9258V17.5H53.0352V15.4492H54.3359ZM50.75 21.9648C53 21.9648 54.3711 22.7148 54.3711 24.0039C54.3711 25.293 53 26.0312 50.75 26.0312C48.5117 26.0312 47.1406 25.293 47.1523 24.0039C47.1406 22.7148 48.5117 21.9648 50.75 21.9648ZM50.75 22.9727C49.2734 22.9727 48.4414 23.3359 48.4414 24.0039C48.4414 24.6484 49.2734 25.0117 50.75 25.0117C52.2266 25.0117 53.0703 24.6484 53.0703 24.0039C53.0703 23.3359 52.2266 22.9727 50.75 22.9727Z" fill="black"/>
<defs>
<filter id="filter0_d_556_28" x="0" y="0" width="88" height="84" filterUnits="userSpaceOnUse" color-interpolation-filters="sRGB">
<feFlood flood-opacity="0" result="BackgroundImageFix"/>
<feColorMatrix in="SourceAlpha" type="matrix" values="0 0 0 0 0 0 0 0 0 0 0 0 0 0 0 0 0 0 127 0" result="hardAlpha"/>
<feOffset/>
<feGaussianBlur stdDeviation="2"/>
<feComposite in2="hardAlpha" operator="out"/>
<feColorMatrix type="matrix" values="0 0 0 0 0 0 0 0 0 0 0 0 0 0 0 0 0 0 0.15 0"/>
<feBlend mode="normal" in2="BackgroundImageFix" result="effect1_dropShadow_556_28"/>
<feBlend mode="normal" in="SourceGraphic" in2="effect1_dropShadow_556_28" result="shape"/>
</filter>
</defs>
</svg>

