<svg width="88" height="84" viewBox="0 0 88 84" fill="none" xmlns="http://www.w3.org/2000/svg">
<g filter="url(#filter0_d_556_67)">
<rect x="4" y="4" width="80" height="76" rx="10" fill="white"/>
</g>
<path d="M15.9102 16.4219V18.8711H17.6328V16.4219H18.8398V23.4766H14.6797V16.4219H15.9102ZM15.9102 22.4219H17.6328V19.9023H15.9102V22.4219ZM23.4922 15.4492V26.043H22.2383V20.6172H21.1133V25.5273H19.8828V15.6367H21.1133V19.5391H22.2383V15.4492H23.4922ZM29.8789 16.0234V17.0664H26.4219V19.4219C28.3496 19.4102 29.5039 19.334 30.8164 19.0703L30.957 20.0781C29.5391 20.4062 28.2383 20.4414 25.9883 20.4414H25.1328V16.0234H29.8789ZM33.0781 15.4492V17.5352H34.5547V18.6016H33.0781V20.7461H31.7773V15.4492H33.0781ZM33.0781 21.2031V24.0156H27.4531V24.8594H33.4062V25.9141H26.1641V23.0312H31.7773V22.2461H26.1523V21.2031H33.0781ZM47.082 15.4492V26.043H45.8398V15.4492H47.082ZM44.832 15.707V25.5391H43.6016V20.6641H41.7148C41.0938 21.8828 40.0977 22.9375 38.5977 23.8047L37.8594 22.8789C40.0566 21.584 41.0586 19.9258 41.2578 17.793H38.3984V16.7383H42.5469C42.5469 17.7637 42.4238 18.7246 42.1367 19.6211H43.6016V15.707H44.832ZM52.3203 17.9922C52.3086 19.9375 53.3281 21.8828 55.0508 22.6211L54.2773 23.6641C53.0586 23.1016 52.1621 21.9766 51.6758 20.5938C51.1895 22.0879 50.2812 23.3066 48.9922 23.9102L48.1953 22.8203C49.9648 22.0586 50.9961 20.0312 50.9961 17.9922V16.3047H52.3203V17.9922ZM57.125 15.4492V26.0547H55.8125V15.4492H57.125ZM64.6484 16.375V17.418H63.7227V20.5469C64.1855 20.5176 64.6367 20.4707 65.0703 20.418L65.1641 21.3789C63.0312 21.7305 60.5938 21.7773 58.8008 21.7773L58.6602 20.7227C59.041 20.7227 59.4512 20.7168 59.8789 20.7109V17.418H58.9414V16.375H64.6484ZM67.0391 15.4609V18.5195H68.5156V19.6094H67.0391V23.2539H65.7383V15.4609H67.0391ZM67.4609 24.7773V25.832H60.2539V22.5156H61.5547V24.7773H67.4609ZM61.1328 20.6758C61.5664 20.6699 62.0117 20.6523 62.457 20.6289V17.418H61.1328V20.6758Z" fill="black"/>
<defs>
<filter id="filter0_d_556_67" x="0" y="0" width="88" height="84" filterUnits="userSpaceOnUse" color-interpolation-filters="sRGB">
<feFlood flood-opacity="0" result="BackgroundImageFix"/>
<feColorMatrix in="SourceAlpha" type="matrix" values="0 0 0 0 0 0 0 0 0 0 0 0 0 0 0 0 0 0 127 0" result="hardAlpha"/>
<feOffset/>
<feGaussianBlur stdDeviation="2"/>
<feComposite in2="hardAlpha" operator="out"/>
<feColorMatrix type="matrix" values="0 0 0 0 0 0 0 0 0 0 0 0 0 0 0 0 0 0 0.15 0"/>
<feBlend mode="normal" in2="BackgroundImageFix" result="effect1_dropShadow_556_67"/>
<feBlend mode="normal" in="SourceGraphic" in2="effect1_dropShadow_556_67" result="shape"/>
</filter>
</defs>
</svg>
