<svg width="88" height="84" viewBox="0 0 88 84" fill="none" xmlns="http://www.w3.org/2000/svg">
<g filter="url(#filter0_d_556_64)">
<rect x="4" y="4" width="80" height="76" rx="10" fill="white"/>
</g>
<path d="M18.1484 18.4609C18.1484 20.1016 19.1211 21.9648 20.7969 22.7383L20.0703 23.7695C18.875 23.207 17.9902 22.0703 17.5156 20.7461C17.0352 22.1992 16.1094 23.4414 14.8906 24.0273L14.1289 23.0078C15.8164 22.2109 16.8359 20.2188 16.8477 18.4609V17.5703H14.5391V16.4922H20.3633V17.5703H18.1484V18.4609ZM22.6484 15.4492V19.5742H24.2773V20.6641H22.6484V26.043H21.3477V15.4492H22.6484ZM34.3906 21.3906V22.4453H32.0352V26.043H30.7109V22.4453H28.3672V26.043H27.0312V22.4453H24.7109V21.3906H34.3906ZM29.5273 15.8242C31.7773 15.8359 33.3477 16.75 33.3477 18.1914C33.3477 19.6094 31.7773 20.5117 29.5273 20.5117C27.2656 20.5117 25.7188 19.6094 25.7305 18.1914C25.7188 16.75 27.2656 15.8359 29.5273 15.8242ZM29.5273 16.8789C28.0273 16.8789 27.0547 17.3594 27.0664 18.1914C27.0547 19 28.0273 19.4805 29.5273 19.4805C31.0273 19.4805 32 19 32 18.1914C32 17.3594 31.0273 16.8789 29.5273 16.8789ZM47.082 15.4492V26.043H45.8398V15.4492H47.082ZM44.832 15.707V25.5391H43.6016V20.6641H41.7148C41.0938 21.8828 40.0977 22.9375 38.5977 23.8047L37.8594 22.8789C40.0566 21.584 41.0586 19.9258 41.2578 17.793H38.3984V16.7383H42.5469C42.5469 17.7637 42.4238 18.7246 42.1367 19.6211H43.6016V15.707H44.832ZM52.3203 17.9922C52.3086 19.9375 53.3281 21.8828 55.0508 22.6211L54.2773 23.6641C53.0586 23.1016 52.1621 21.9766 51.6758 20.5938C51.1895 22.0879 50.2812 23.3066 48.9922 23.9102L48.1953 22.8203C49.9648 22.0586 50.9961 20.0312 50.9961 17.9922V16.3047H52.3203V17.9922ZM57.125 15.4492V26.0547H55.8125V15.4492H57.125ZM64.6484 16.375V17.418H63.7227V20.5469C64.1855 20.5176 64.6367 20.4707 65.0703 20.418L65.1641 21.3789C63.0312 21.7305 60.5938 21.7773 58.8008 21.7773L58.6602 20.7227C59.041 20.7227 59.4512 20.7168 59.8789 20.7109V17.418H58.9414V16.375H64.6484ZM67.0391 15.4609V18.5195H68.5156V19.6094H67.0391V23.2539H65.7383V15.4609H67.0391ZM67.4609 24.7773V25.832H60.2539V22.5156H61.5547V24.7773H67.4609ZM61.1328 20.6758C61.5664 20.6699 62.0117 20.6523 62.457 20.6289V17.418H61.1328V20.6758Z" fill="black"/>
<defs>
<filter id="filter0_d_556_64" x="0" y="0" width="88" height="84" filterUnits="userSpaceOnUse" color-interpolation-filters="sRGB">
<feFlood flood-opacity="0" result="BackgroundImageFix"/>
<feColorMatrix in="SourceAlpha" type="matrix" values="0 0 0 0 0 0 0 0 0 0 0 0 0 0 0 0 0 0 127 0" result="hardAlpha"/>
<feOffset/>
<feGaussianBlur stdDeviation="2"/>
<feComposite in2="hardAlpha" operator="out"/>
<feColorMatrix type="matrix" values="0 0 0 0 0 0 0 0 0 0 0 0 0 0 0 0 0 0 0.15 0"/>
<feBlend mode="normal" in2="BackgroundImageFix" result="effect1_dropShadow_556_64"/>
<feBlend mode="normal" in="SourceGraphic" in2="effect1_dropShadow_556_64" result="shape"/>
</filter>
</defs>
</svg>
