<svg width="88" height="84" viewBox="0 0 88 84" fill="none" xmlns="http://www.w3.org/2000/svg">
<g filter="url(#filter0_d_556_12)">
<rect x="4" y="4" width="80" height="76" rx="10" fill="white"/>
</g>
<path d="M19.1211 22.0703C21.418 22.082 22.8711 22.8086 22.8828 24.0625C22.8711 25.293 21.418 26.0312 19.1211 26.0312C16.8359 26.0312 15.3711 25.293 15.3711 24.0625C15.3711 22.8086 16.8359 22.082 19.1211 22.0703ZM19.1211 23.0547C17.5977 23.0547 16.6719 23.418 16.6836 24.0625C16.6719 24.6836 17.5977 25.0234 19.1211 25.0234C20.6562 25.0234 21.582 24.6836 21.5938 24.0625C21.582 23.418 20.6562 23.0547 19.1211 23.0547ZM22.8125 15.9531V16.832C22.8125 17.6641 22.8125 18.5547 22.5195 19.6445L21.2305 19.5273C21.4941 18.4961 21.5117 17.752 21.5117 16.9844H15.4766V15.9531H22.8125ZM23.9844 20.2539V21.3086H14.375V20.2539H18.1016V18.332H19.3906V20.2539H23.9844ZM28.7188 18.4609C28.7188 20.1953 29.7383 22.0234 31.4492 22.7383L30.7344 23.7695C29.4805 23.2305 28.5664 22.1172 28.0859 20.7695C27.5938 22.2227 26.668 23.4414 25.4258 24.0273L24.6758 23.0078C26.3516 22.2344 27.3945 20.2656 27.3945 18.4609V17.5703H25.0625V16.4922H31.0391V17.5703H28.7188V18.4609ZM33.5352 15.4492V26.043H32.2227V15.4492H33.5352ZM38.8789 17.9922C38.8672 19.8789 39.8164 21.8008 41.457 22.5859L40.6602 23.6289C39.5117 23.0488 38.6855 21.9297 38.2344 20.582C37.7715 22.0234 36.9043 23.2188 35.6914 23.8281L34.8945 22.7852C36.5938 21.9766 37.5664 19.9492 37.5781 17.9922V16.3047H38.8789V17.9922ZM43.3906 15.4492V19.5977H45.0195V20.7109H43.3906V26.043H42.0898V15.4492H43.3906ZM53.8203 15.4492V18.2383H55.2969V19.3281H53.8203V22.2109H52.5195V15.4492H53.8203ZM50.3984 22.3047C52.5664 22.3047 53.9375 22.9961 53.9375 24.168C53.9375 25.3281 52.5664 26.0312 50.3984 26.0312C48.1953 26.0312 46.8477 25.3281 46.8594 24.168C46.8477 22.9961 48.1953 22.3047 50.3984 22.3047ZM50.3984 23.3008C48.9453 23.3008 48.1367 23.582 48.1484 24.168C48.1367 24.7305 48.9453 25.0469 50.3984 25.0469C51.8281 25.0469 52.6367 24.7305 52.6367 24.168C52.6367 23.582 51.8281 23.3008 50.3984 23.3008ZM51.7578 16.5273V17.5469H45.4766V16.5273H47.9727V15.3789H49.2734V16.5273H51.7578ZM48.6172 17.9688C50.1523 17.9688 51.1953 18.7305 51.207 19.8672C51.1953 21.0039 50.1523 21.7539 48.6172 21.7539C47.0703 21.7539 46.0156 21.0039 46.0156 19.8672C46.0156 18.7305 47.0703 17.9688 48.6172 17.9688ZM48.6172 18.9297C47.8086 18.9297 47.2812 19.2812 47.2812 19.8672C47.2812 20.4414 47.8086 20.7695 48.6172 20.7695C49.4258 20.7695 49.9648 20.4414 49.9648 19.8672C49.9648 19.2812 49.4258 18.9297 48.6172 18.9297Z" fill="black"/>
<defs>
<filter id="filter0_d_556_12" x="0" y="0" width="88" height="84" filterUnits="userSpaceOnUse" color-interpolation-filters="sRGB">
<feFlood flood-opacity="0" result="BackgroundImageFix"/>
<feColorMatrix in="SourceAlpha" type="matrix" values="0 0 0 0 0 0 0 0 0 0 0 0 0 0 0 0 0 0 127 0" result="hardAlpha"/>
<feOffset/>
<feGaussianBlur stdDeviation="2"/>
<feComposite in2="hardAlpha" operator="out"/>
<feColorMatrix type="matrix" values="0 0 0 0 0 0 0 0 0 0 0 0 0 0 0 0 0 0 0.15 0"/>
<feBlend mode="normal" in2="BackgroundImageFix" result="effect1_dropShadow_556_12"/>
<feBlend mode="normal" in="SourceGraphic" in2="effect1_dropShadow_556_12" result="shape"/>
</filter>
</defs>
</svg>
