<svg width="88" height="84" viewBox="0 0 88 84" fill="none" xmlns="http://www.w3.org/2000/svg">
<g filter="url(#filter0_d_556_79)">
<rect x="4" y="4" width="80" height="76" rx="10" fill="white"/>
</g>
<path d="M19.168 22.75C21.5 22.75 22.8242 23.3359 22.8359 24.4023C22.8242 25.4688 21.5 26.0312 19.168 26.0312C16.8008 26.0312 15.4766 25.4688 15.4766 24.4023C15.4766 23.3359 16.8008 22.75 19.168 22.75ZM19.168 23.7109C17.5977 23.7109 16.8125 23.9453 16.8125 24.4023C16.8125 24.8594 17.5977 25.082 19.168 25.0703C20.7266 25.082 21.5117 24.8594 21.5234 24.4023C21.5117 23.9453 20.7266 23.7109 19.168 23.7109ZM23.4805 16.2578V17.2539H14.832V16.2578H18.5234V15.3438H19.8242V16.2578H23.4805ZM19.168 17.582C21.4297 17.582 22.6953 18.0977 22.6953 19.1055C22.6953 19.9902 21.6758 20.5059 19.8242 20.5938V21.2383H24.0078V22.2578H14.3516V21.2383H18.5234V20.5938C16.6836 20.5059 15.6523 19.9902 15.6523 19.1055C15.6523 18.0977 16.9297 17.582 19.168 17.582ZM19.168 18.4727C17.7617 18.4727 17.0469 18.6719 17.0469 19.1055C17.0469 19.5156 17.7617 19.7148 19.168 19.7266C20.5859 19.7148 21.3008 19.5156 21.3008 19.1055C21.3008 18.6719 20.5859 18.4727 19.168 18.4727ZM34.4023 23.6992V24.7656H24.7227V23.6992H28.8945V21.6367H25.7891V16.1523H27.0898V17.8867H32V16.1523H33.3008V21.6367H30.1836V23.6992H34.4023ZM27.0898 20.582H32V18.9297H27.0898V20.582ZM47.082 15.4492V26.043H45.8398V15.4492H47.082ZM44.832 15.707V25.5391H43.6016V20.6641H41.7148C41.0938 21.8828 40.0977 22.9375 38.5977 23.8047L37.8594 22.8789C40.0566 21.584 41.0586 19.9258 41.2578 17.793H38.3984V16.7383H42.5469C42.5469 17.7637 42.4238 18.7246 42.1367 19.6211H43.6016V15.707H44.832ZM52.3203 17.9922C52.3086 19.9375 53.3281 21.8828 55.0508 22.6211L54.2773 23.6641C53.0586 23.1016 52.1621 21.9766 51.6758 20.5938C51.1895 22.0879 50.2812 23.3066 48.9922 23.9102L48.1953 22.8203C49.9648 22.0586 50.9961 20.0312 50.9961 17.9922V16.3047H52.3203V17.9922ZM57.125 15.4492V26.0547H55.8125V15.4492H57.125ZM64.6484 16.375V17.418H63.7227V20.5469C64.1855 20.5176 64.6367 20.4707 65.0703 20.418L65.1641 21.3789C63.0312 21.7305 60.5938 21.7773 58.8008 21.7773L58.6602 20.7227C59.041 20.7227 59.4512 20.7168 59.8789 20.7109V17.418H58.9414V16.375H64.6484ZM67.0391 15.4609V18.5195H68.5156V19.6094H67.0391V23.2539H65.7383V15.4609H67.0391ZM67.4609 24.7773V25.832H60.2539V22.5156H61.5547V24.7773H67.4609ZM61.1328 20.6758C61.5664 20.6699 62.0117 20.6523 62.457 20.6289V17.418H61.1328V20.6758Z" fill="black"/>
<defs>
<filter id="filter0_d_556_79" x="0" y="0" width="88" height="84" filterUnits="userSpaceOnUse" color-interpolation-filters="sRGB">
<feFlood flood-opacity="0" result="BackgroundImageFix"/>
<feColorMatrix in="SourceAlpha" type="matrix" values="0 0 0 0 0 0 0 0 0 0 0 0 0 0 0 0 0 0 127 0" result="hardAlpha"/>
<feOffset/>
<feGaussianBlur stdDeviation="2"/>
<feComposite in2="hardAlpha" operator="out"/>
<feColorMatrix type="matrix" values="0 0 0 0 0 0 0 0 0 0 0 0 0 0 0 0 0 0 0.15 0"/>
<feBlend mode="normal" in2="BackgroundImageFix" result="effect1_dropShadow_556_79"/>
<feBlend mode="normal" in="SourceGraphic" in2="effect1_dropShadow_556_79" result="shape"/>
</filter>
</defs>
</svg>
