<svg width="88" height="84" viewBox="0 0 88 84" fill="none" xmlns="http://www.w3.org/2000/svg">
<g filter="url(#filter0_d_556_174)">
<rect x="4" y="4" width="80" height="76" rx="10" fill="white"/>
</g>
<path d="M20.3164 16.375V17.418H19.3906V20.5469C19.8535 20.5176 20.3047 20.4707 20.7383 20.418L20.832 21.3789C18.6992 21.7305 16.2617 21.7773 14.4688 21.7773L14.3281 20.7227C14.709 20.7227 15.1191 20.7168 15.5469 20.7109V17.418H14.6094V16.375H20.3164ZM22.707 15.4609V18.5195H24.1836V19.6094H22.707V23.2539H21.4062V15.4609H22.707ZM23.1289 24.7773V25.832H15.9219V22.5156H17.2227V24.7773H23.1289ZM16.8008 20.6758C17.2344 20.6699 17.6797 20.6523 18.125 20.6289V17.418H16.8008V20.6758ZM33.8633 15.4492V26.043H32.6094V20.6172H31.4844V25.5273H30.2539V15.6367H31.4844V19.5391H32.6094V15.4492H33.8633ZM29.2109 16.5977V23.3125H25.0508V16.5977H29.2109ZM26.2695 17.6289V22.2812H27.9922V17.6289H26.2695ZM47.082 15.4492V26.043H45.8398V15.4492H47.082ZM44.832 15.707V25.5391H43.6016V20.6641H41.7148C41.0938 21.8828 40.0977 22.9375 38.5977 23.8047L37.8594 22.8789C40.0566 21.584 41.0586 19.9258 41.2578 17.793H38.3984V16.7383H42.5469C42.5469 17.7637 42.4238 18.7246 42.1367 19.6211H43.6016V15.707H44.832ZM52.3203 17.9922C52.3086 19.9375 53.3281 21.8828 55.0508 22.6211L54.2773 23.6641C53.0586 23.1016 52.1621 21.9766 51.6758 20.5938C51.1895 22.0879 50.2812 23.3066 48.9922 23.9102L48.1953 22.8203C49.9648 22.0586 50.9961 20.0312 50.9961 17.9922V16.3047H52.3203V17.9922ZM57.125 15.4492V26.0547H55.8125V15.4492H57.125ZM64.6484 16.375V17.418H63.7227V20.5469C64.1855 20.5176 64.6367 20.4707 65.0703 20.418L65.1641 21.3789C63.0312 21.7305 60.5938 21.7773 58.8008 21.7773L58.6602 20.7227C59.041 20.7227 59.4512 20.7168 59.8789 20.7109V17.418H58.9414V16.375H64.6484ZM67.0391 15.4609V18.5195H68.5156V19.6094H67.0391V23.2539H65.7383V15.4609H67.0391ZM67.4609 24.7773V25.832H60.2539V22.5156H61.5547V24.7773H67.4609ZM61.1328 20.6758C61.5664 20.6699 62.0117 20.6523 62.457 20.6289V17.418H61.1328V20.6758Z" fill="black"/>
<defs>
<filter id="filter0_d_556_174" x="0" y="0" width="88" height="84" filterUnits="userSpaceOnUse" color-interpolation-filters="sRGB">
<feFlood flood-opacity="0" result="BackgroundImageFix"/>
<feColorMatrix in="SourceAlpha" type="matrix" values="0 0 0 0 0 0 0 0 0 0 0 0 0 0 0 0 0 0 127 0" result="hardAlpha"/>
<feOffset/>
<feGaussianBlur stdDeviation="2"/>
<feComposite in2="hardAlpha" operator="out"/>
<feColorMatrix type="matrix" values="0 0 0 0 0 0 0 0 0 0 0 0 0 0 0 0 0 0 0.15 0"/>
<feBlend mode="normal" in2="BackgroundImageFix" result="effect1_dropShadow_556_174"/>
<feBlend mode="normal" in="SourceGraphic" in2="effect1_dropShadow_556_174" result="shape"/>
</filter>
</defs>
</svg>
