<svg width="88" height="84" viewBox="0 0 88 84" fill="none" xmlns="http://www.w3.org/2000/svg">
<g filter="url(#filter0_d_556_70)">
<rect x="4" y="4" width="80" height="76" rx="10" fill="white"/>
</g>
<path d="M18.6445 14.4688V15.5H12.3633V14.4688H14.8594V13.4023H16.1602V14.4688H18.6445ZM15.5039 15.9102C17.0391 15.9102 18.082 16.6836 18.0938 17.8438C18.082 19.0039 17.0391 19.7773 15.5039 19.7773C13.9688 19.7773 12.9023 19.0039 12.9023 17.8438C12.9023 16.6836 13.9688 15.9102 15.5039 15.9102ZM15.5039 16.8945C14.6953 16.8945 14.168 17.2461 14.168 17.8438C14.168 18.4414 14.6953 18.7812 15.5039 18.7695C16.3125 18.7812 16.8516 18.4414 16.8516 17.8438C16.8516 17.2461 16.3125 16.8945 15.5039 16.8945ZM20.707 13.4492V16.2617H22.1836V17.3281H20.707V20.082H19.4062V13.4492H20.707ZM20.707 20.5742V24.043H19.4062V21.6172H13.6523V20.5742H20.707ZM31.4062 14.4219V15.5C31.4062 16.8125 31.4062 18.2422 31.0195 20.3164L29.7422 20.1875C30.1055 18.2305 30.1055 16.7773 30.1055 15.5V15.4648H23.6953V14.4219H31.4062ZM32.3789 21.6055V22.6719H22.7227V21.6055H24.8906V18.2305H26.1914V21.6055H27.5391V18.2305H28.8164V21.6055H32.3789ZM45.082 13.4492V24.043H43.8398V13.4492H45.082ZM42.832 13.707V23.5391H41.6016V18.6641H39.7148C39.0938 19.8828 38.0977 20.9375 36.5977 21.8047L35.8594 20.8789C38.0566 19.584 39.0586 17.9258 39.2578 15.793H36.3984V14.7383H40.5469C40.5469 15.7637 40.4238 16.7246 40.1367 17.6211H41.6016V13.707H42.832ZM50.3203 15.9922C50.3086 17.9375 51.3281 19.8828 53.0508 20.6211L52.2773 21.6641C51.0586 21.1016 50.1621 19.9766 49.6758 18.5938C49.1895 20.0879 48.2812 21.3066 46.9922 21.9102L46.1953 20.8203C47.9648 20.0586 48.9961 18.0312 48.9961 15.9922V14.3047H50.3203V15.9922ZM55.125 13.4492V24.0547H53.8125V13.4492H55.125ZM62.6484 14.375V15.418H61.7227V18.5469C62.1855 18.5176 62.6367 18.4707 63.0703 18.418L63.1641 19.3789C61.0312 19.7305 58.5938 19.7773 56.8008 19.7773L56.6602 18.7227C57.041 18.7227 57.4512 18.7168 57.8789 18.7109V15.418H56.9414V14.375H62.6484ZM65.0391 13.4609V16.5195H66.5156V17.6094H65.0391V21.2539H63.7383V13.4609H65.0391ZM65.4609 22.7773V23.832H58.2539V20.5156H59.5547V22.7773H65.4609ZM59.1328 18.6758C59.5664 18.6699 60.0117 18.6523 60.457 18.6289V15.418H59.1328V18.6758Z" fill="black"/>
<defs>
<filter id="filter0_d_556_70" x="0" y="0" width="88" height="84" filterUnits="userSpaceOnUse" color-interpolation-filters="sRGB">
<feFlood flood-opacity="0" result="BackgroundImageFix"/>
<feColorMatrix in="SourceAlpha" type="matrix" values="0 0 0 0 0 0 0 0 0 0 0 0 0 0 0 0 0 0 127 0" result="hardAlpha"/>
<feOffset/>
<feGaussianBlur stdDeviation="2"/>
<feComposite in2="hardAlpha" operator="out"/>
<feColorMatrix type="matrix" values="0 0 0 0 0 0 0 0 0 0 0 0 0 0 0 0 0 0 0.15 0"/>
<feBlend mode="normal" in2="BackgroundImageFix" result="effect1_dropShadow_556_70"/>
<feBlend mode="normal" in="SourceGraphic" in2="effect1_dropShadow_556_70" result="shape"/>
</filter>
</defs>
</svg>
