<svg width="88" height="84" viewBox="0 0 88 84" fill="none" xmlns="http://www.w3.org/2000/svg">
<g filter="url(#filter0_d_556_180)">
<rect x="4" y="4" width="80" height="76" rx="10" fill="white"/>
</g>
<path d="M24.2188 19.5391V20.6055H22.6484V26.0195H21.3477V15.4492H22.6484V19.5391H24.2188ZM16.0156 16.4805V22.3281C17.4277 22.3047 18.9336 22.1816 20.5273 21.8477L20.668 22.9492C18.8867 23.3008 17.1875 23.4062 15.6172 23.4062H14.7266V16.4805H16.0156ZM33.2891 18.1445V19.1992H25.9766V15.625H27.2773V18.1445H33.2891ZM34.3906 20.1133V21.168H30.1719V22.2344H33.1836V25.9023H25.9414V22.2344H28.8711V21.168H24.7227V20.1133H34.3906ZM27.207 23.2539V24.8711H31.918V23.2539H27.207ZM47.082 15.4492V26.043H45.8398V15.4492H47.082ZM44.832 15.707V25.5391H43.6016V20.6641H41.7148C41.0938 21.8828 40.0977 22.9375 38.5977 23.8047L37.8594 22.8789C40.0566 21.584 41.0586 19.9258 41.2578 17.793H38.3984V16.7383H42.5469C42.5469 17.7637 42.4238 18.7246 42.1367 19.6211H43.6016V15.707H44.832ZM52.3203 17.9922C52.3086 19.9375 53.3281 21.8828 55.0508 22.6211L54.2773 23.6641C53.0586 23.1016 52.1621 21.9766 51.6758 20.5938C51.1895 22.0879 50.2812 23.3066 48.9922 23.9102L48.1953 22.8203C49.9648 22.0586 50.9961 20.0312 50.9961 17.9922V16.3047H52.3203V17.9922ZM57.125 15.4492V26.0547H55.8125V15.4492H57.125ZM64.6484 16.375V17.418H63.7227V20.5469C64.1855 20.5176 64.6367 20.4707 65.0703 20.418L65.1641 21.3789C63.0312 21.7305 60.5938 21.7773 58.8008 21.7773L58.6602 20.7227C59.041 20.7227 59.4512 20.7168 59.8789 20.7109V17.418H58.9414V16.375H64.6484ZM67.0391 15.4609V18.5195H68.5156V19.6094H67.0391V23.2539H65.7383V15.4609H67.0391ZM67.4609 24.7773V25.832H60.2539V22.5156H61.5547V24.7773H67.4609ZM61.1328 20.6758C61.5664 20.6699 62.0117 20.6523 62.457 20.6289V17.418H61.1328V20.6758Z" fill="black"/>
<defs>
<filter id="filter0_d_556_180" x="0" y="0" width="88" height="84" filterUnits="userSpaceOnUse" color-interpolation-filters="sRGB">
<feFlood flood-opacity="0" result="BackgroundImageFix"/>
<feColorMatrix in="SourceAlpha" type="matrix" values="0 0 0 0 0 0 0 0 0 0 0 0 0 0 0 0 0 0 127 0" result="hardAlpha"/>
<feOffset/>
<feGaussianBlur stdDeviation="2"/>
<feComposite in2="hardAlpha" operator="out"/>
<feColorMatrix type="matrix" values="0 0 0 0 0 0 0 0 0 0 0 0 0 0 0 0 0 0 0.15 0"/>
<feBlend mode="normal" in2="BackgroundImageFix" result="effect1_dropShadow_556_180"/>
<feBlend mode="normal" in="SourceGraphic" in2="effect1_dropShadow_556_180" result="shape"/>
</filter>
</defs>
</svg>
