<svg width="88" height="84" viewBox="0 0 88 84" fill="none" xmlns="http://www.w3.org/2000/svg">
<g filter="url(#filter0_d_556_73)">
<rect x="4" y="4" width="80" height="76" rx="10" fill="white"/>
</g>
<path d="M23.2227 15.4609V23.2305H21.9219V19.668H19.8828V18.5898H21.9219V15.4609H23.2227ZM19.9531 16.2578C19.9531 19.0469 18.1016 21.1445 15.043 22.1172L14.4922 21.0742C16.7773 20.3477 18.2832 19 18.5352 17.3242H15.043V16.2578H19.9531ZM23.4922 24.7773V25.832H16.3203V22.4453H17.6445V24.7773H23.4922ZM28.1562 16.1875C29.832 16.1758 31.0625 17.2422 31.0742 18.7422C31.0625 20.2539 29.832 21.3086 28.1562 21.3086C26.4922 21.3086 25.25 20.2539 25.25 18.7422C25.25 17.2422 26.4922 16.1758 28.1562 16.1875ZM28.1562 17.3125C27.2305 17.3125 26.5391 17.8633 26.5391 18.7422C26.5391 19.6328 27.2305 20.1719 28.1562 20.1719C29.0938 20.1719 29.7969 19.6328 29.7969 18.7422C29.7969 17.8633 29.0938 17.3125 28.1562 17.3125ZM33.5469 15.4492V26.0547H32.2461V15.4492H33.5469ZM24.7695 22.7734C26.6797 22.7734 29.3281 22.75 31.6133 22.4219L31.7188 23.3711C29.3398 23.8281 26.7969 23.8398 24.9336 23.8398L24.7695 22.7734ZM47.082 15.4492V26.043H45.8398V15.4492H47.082ZM44.832 15.707V25.5391H43.6016V20.6641H41.7148C41.0938 21.8828 40.0977 22.9375 38.5977 23.8047L37.8594 22.8789C40.0566 21.584 41.0586 19.9258 41.2578 17.793H38.3984V16.7383H42.5469C42.5469 17.7637 42.4238 18.7246 42.1367 19.6211H43.6016V15.707H44.832ZM52.3203 17.9922C52.3086 19.9375 53.3281 21.8828 55.0508 22.6211L54.2773 23.6641C53.0586 23.1016 52.1621 21.9766 51.6758 20.5938C51.1895 22.0879 50.2812 23.3066 48.9922 23.9102L48.1953 22.8203C49.9648 22.0586 50.9961 20.0312 50.9961 17.9922V16.3047H52.3203V17.9922ZM57.125 15.4492V26.0547H55.8125V15.4492H57.125ZM64.6484 16.375V17.418H63.7227V20.5469C64.1855 20.5176 64.6367 20.4707 65.0703 20.418L65.1641 21.3789C63.0312 21.7305 60.5938 21.7773 58.8008 21.7773L58.6602 20.7227C59.041 20.7227 59.4512 20.7168 59.8789 20.7109V17.418H58.9414V16.375H64.6484ZM67.0391 15.4609V18.5195H68.5156V19.6094H67.0391V23.2539H65.7383V15.4609H67.0391ZM67.4609 24.7773V25.832H60.2539V22.5156H61.5547V24.7773H67.4609ZM61.1328 20.6758C61.5664 20.6699 62.0117 20.6523 62.457 20.6289V17.418H61.1328V20.6758Z" fill="black"/>
<defs>
<filter id="filter0_d_556_73" x="0" y="0" width="88" height="84" filterUnits="userSpaceOnUse" color-interpolation-filters="sRGB">
<feFlood flood-opacity="0" result="BackgroundImageFix"/>
<feColorMatrix in="SourceAlpha" type="matrix" values="0 0 0 0 0 0 0 0 0 0 0 0 0 0 0 0 0 0 127 0" result="hardAlpha"/>
<feOffset/>
<feGaussianBlur stdDeviation="2"/>
<feComposite in2="hardAlpha" operator="out"/>
<feColorMatrix type="matrix" values="0 0 0 0 0 0 0 0 0 0 0 0 0 0 0 0 0 0 0.15 0"/>
<feBlend mode="normal" in2="BackgroundImageFix" result="effect1_dropShadow_556_73"/>
<feBlend mode="normal" in="SourceGraphic" in2="effect1_dropShadow_556_73" result="shape"/>
</filter>
</defs>
</svg>
